<?xml version="1.0" encoding="UTF-8" standalone="no"?><svg xmlns="http://www.w3.org/2000/svg" xmlns:xlink="http://www.w3.org/1999/xlink" contentStyleType="text/css" height="353px" preserveAspectRatio="none" style="width:537px;height:353px;background:#FFFFFF;" version="1.1" viewBox="0 0 537 353" width="537px" zoomAndPan="magnify"><defs/><g><rect fill="#F1F1F1" height="27.6094" style="stroke:#F1F1F1;stroke-width:1.0;" width="523.5" x="7" y="7"/><rect fill="none" height="340.6094" style="stroke:#181818;stroke-width:0.5;" width="523.5" x="7" y="7"/><line style="stroke:#181818;stroke-width:0.5;" x1="7" x2="530.5" y1="34.6094" y2="34.6094"/><text fill="#000000" font-family="sans-serif" font-size="14" lengthAdjust="spacing" textLength="34" x="251.75" y="26.5332">Voter</text><ellipse cx="143.5" cy="71.6094" fill="#222222" rx="10" ry="10" style="stroke:none;stroke-width:1.0;"/><g id="Voter.operation_"><rect fill="#F1F1F1" height="50" rx="12.5" ry="12.5" style="stroke:#181818;stroke-width:0.5;" width="88" x="171.5" y="46.6094"/><line style="stroke:#181818;stroke-width:0.5;" x1="171.5" x2="259.5" y1="74.2188" y2="74.2188"/><text fill="#000000" font-family="sans-serif" font-size="14" lengthAdjust="spacing" textLength="68" x="181.5" y="66.1426">operation_</text></g><g id="Voter.onlyGPS2"><rect fill="#F1F1F1" height="50" rx="12.5" ry="12.5" style="stroke:#181818;stroke-width:0.5;" width="83" x="19" y="150.6094"/><line style="stroke:#181818;stroke-width:0.5;" x1="19" x2="102" y1="178.2188" y2="178.2188"/><text fill="#000000" font-family="sans-serif" font-size="14" lengthAdjust="spacing" textLength="63" x="29" y="170.1426">onlyGPS2</text></g><g id="Voter.onlyGPS1"><rect fill="#F1F1F1" height="50" rx="12.5" ry="12.5" style="stroke:#181818;stroke-width:0.5;" width="83" x="174" y="150.6094"/><line style="stroke:#181818;stroke-width:0.5;" x1="174" x2="257" y1="178.2188" y2="178.2188"/><text fill="#000000" font-family="sans-serif" font-size="14" lengthAdjust="spacing" textLength="63" x="184" y="170.1426">onlyGPS1</text></g><g id="Voter.failstop"><rect fill="#F1F1F1" height="50" rx="12.5" ry="12.5" style="stroke:#181818;stroke-width:0.5;" width="65" x="183" y="287.6094"/><line style="stroke:#181818;stroke-width:0.5;" x1="183" x2="248" y1="315.2188" y2="315.2188"/><text fill="#000000" font-family="sans-serif" font-size="14" lengthAdjust="spacing" textLength="45" x="193" y="307.1426">failstop</text></g><!--MD5=[fd5d2e1ca87c296845c44d8feeefd1b1]
link *start*Voter to operation_--><g id="link_*start*Voter_operation_"><path d="M153.91,71.6094 C157.52,71.6094 161.12,71.6094 164.73,71.6094 " fill="none" id="*start*Voter-to-operation_" style="stroke:#181818;stroke-width:1.0;"/><polygon fill="#181818" points="169.72,71.6094,160.72,67.6094,164.72,71.6094,160.72,75.6094,169.72,71.6094" style="stroke:#181818;stroke-width:1.0;"/></g><!--MD5=[0e0762fc9a2a4e7e6844a5505604c926]
link operation_ to onlyGPS2--><g id="link_operation__onlyGPS2"><path d="M171.04,92.9494 C168.16,94.1994 165.29,95.4294 162.5,96.6094 C142.27,105.1394 134.66,102.2794 116.5,114.6094 C104.13,123.0094 92.49,134.5994 83.06,145.3594 " fill="none" id="operation_-to-onlyGPS2" style="stroke:#181818;stroke-width:1.0;"/><polygon fill="#181818" points="79.88,149.0794,88.7649,144.8299,83.1257,145.276,82.6796,139.6368,79.88,149.0794" style="stroke:#181818;stroke-width:1.0;"/><text fill="#000000" font-family="sans-serif" font-size="13" lengthAdjust="spacing" textLength="93" x="117.5" y="129.1045">Sensor1.failstop</text></g><!--MD5=[9b6464da0d410a661e8061902411e74c]
link operation_ to onlyGPS1--><g id="link_operation__onlyGPS1"><path d="M215.5,97.0394 C215.5,111.1694 215.5,129.0794 215.5,144.1194 " fill="none" id="operation_-to-onlyGPS1" style="stroke:#181818;stroke-width:1.0;"/><polygon fill="#181818" points="215.5,148.8594,219.5,139.8594,215.5,143.8594,211.5,139.8594,215.5,148.8594" style="stroke:#181818;stroke-width:1.0;"/><text fill="#000000" font-family="sans-serif" font-size="13" lengthAdjust="spacing" textLength="93" x="216.5" y="129.1045">Sensor2.failstop</text></g><!--MD5=[6fcdb4d1db910f8087ba1ebe5ed8533f]
link onlyGPS1 to failstop--><g id="link_onlyGPS1_failstop"><path d="M215.5,201.0594 C215.5,223.5194 215.5,256.8894 215.5,281.0894 " fill="none" id="onlyGPS1-to-failstop" style="stroke:#181818;stroke-width:1.0;"/><polygon fill="#181818" points="215.5,285.8294,219.5,276.8294,215.5,280.8294,211.5,276.8294,215.5,285.8294" style="stroke:#181818;stroke-width:1.0;"/><text fill="#000000" font-family="sans-serif" font-size="13" lengthAdjust="spacing" textLength="107" x="234.5" y="233.1045">(Sensor1.failstop ||</text><text fill="#000000" font-family="sans-serif" font-size="13" lengthAdjust="spacing" textLength="90" x="243" y="249.4561">Faults.failure)  /</text><text fill="#000000" font-family="sans-serif" font-size="13" lengthAdjust="spacing" textLength="143" x="216.5" y="265.8076">Communication.failstop()</text></g><!--MD5=[d1b4900cc58e776bfc1af8369e28385b]
link onlyGPS2 to failstop--><g id="link_onlyGPS2_failstop"><path d="M55.01,200.7194 C51.82,221.2894 51.03,250.4894 66.5,269.6094 C80.3,286.6694 137.1,299.0494 176.44,305.7794 " fill="none" id="onlyGPS2-to-failstop" style="stroke:#181818;stroke-width:1.0;"/><polygon fill="#181818" points="181.1,306.5694,172.8877,301.1326,176.1692,305.7404,171.5614,309.0219,181.1,306.5694" style="stroke:#181818;stroke-width:1.0;"/><text fill="#000000" font-family="sans-serif" font-size="13" lengthAdjust="spacing" textLength="107" x="85.5" y="233.1045">(Sensor2.failstop ||</text><text fill="#000000" font-family="sans-serif" font-size="13" lengthAdjust="spacing" textLength="90" x="94" y="249.4561">Faults.failure)  /</text><text fill="#000000" font-family="sans-serif" font-size="13" lengthAdjust="spacing" textLength="143" x="67.5" y="265.8076">Communication.failstop()</text></g><!--MD5=[4ed252c99c04aef22ca2926e7320505a]
link operation_ to failstop--><g id="link_operation__failstop"><path d="M259.54,83.4794 C278.35,89.9594 299.41,99.8694 314.5,114.6094 C365.99,164.9194 404.8,212.0994 361.5,269.6094 C348.59,286.7594 293.06,299.0794 254.33,305.7794 " fill="none" id="operation_-to-failstop" style="stroke:#181818;stroke-width:1.0;"/><polygon fill="#181818" points="249.77,306.5594,259.3155,308.985,254.6985,305.7165,257.9669,301.0995,249.77,306.5594" style="stroke:#181818;stroke-width:1.0;"/><text fill="#000000" font-family="sans-serif" font-size="13" lengthAdjust="spacing" textLength="86" x="406" y="173.1045">Faults.failure  /</text><text fill="#000000" font-family="sans-serif" font-size="13" lengthAdjust="spacing" textLength="143" x="377.5" y="189.4561">Communication.failstop()</text></g><!--MD5=[c478108da09535652564a83428f407c0]
@startuml
	<style>
		.squareStyle {
			RoundCorner 0
		}
	</style>
	state Voter <<squareStyle>> {
		'region: $$_main_$$
		[*] -> operation_ 
		operation_ - -> onlyGPS2 : Sensor1.failstop 
		operation_ - -> onlyGPS1 : Sensor2.failstop 
		onlyGPS1 - -> failstop : (Sensor1.failstop ||\nFaults.failure)  /\nCommunication.failstop()
		onlyGPS2 - -> failstop : (Sensor2.failstop ||\nFaults.failure)  /\nCommunication.failstop()
		operation_ - -> failstop : Faults.failure  /\nCommunication.failstop()
		
		
	
	}
	
@enduml

@startuml
	<style>
		.squareStyle {
			RoundCorner 0
		}
	</style>
	state Voter <<squareStyle>> {
		[*] -> operation_ 
		operation_ - -> onlyGPS2 : Sensor1.failstop 
		operation_ - -> onlyGPS1 : Sensor2.failstop 
		onlyGPS1 - -> failstop : (Sensor1.failstop ||\nFaults.failure)  /\nCommunication.failstop()
		onlyGPS2 - -> failstop : (Sensor2.failstop ||\nFaults.failure)  /\nCommunication.failstop()
		operation_ - -> failstop : Faults.failure  /\nCommunication.failstop()
		
		
	
	}
	
@enduml

PlantUML version 1.2022.7(Mon Aug 22 19:01:30 CEST 2022)
(EPL source distribution)
Java Runtime: OpenJDK Runtime Environment
JVM: OpenJDK 64-Bit Server VM
Default Encoding: UTF-8
Language: en
Country: US
--></g></svg>