<?xml version="1.0" encoding="us-ascii" standalone="no"?><svg xmlns="http://www.w3.org/2000/svg" xmlns:xlink="http://www.w3.org/1999/xlink" contentStyleType="text/css" height="680px" preserveAspectRatio="none" style="width:2295px;height:680px;background:#FFFFFF;" version="1.1" viewBox="0 0 2295 680" width="2295px" zoomAndPan="magnify"><defs/><g><!--cluster Orion_Slave_Adapter--><g id="cluster_Orion_Slave_Adapter"><rect fill="#FFFFFF" height="618" rx="2.5" ry="2.5" style="stroke:#000000;stroke-width:1.0;" width="2032" x="114.5" y="56"/><rect fill="#FFFFFF" height="10" style="stroke:#000000;stroke-width:1.0;" width="15" x="2126.5" y="61"/><rect fill="#FFFFFF" height="2" style="stroke:#000000;stroke-width:1.0;" width="4" x="2124.5" y="63"/><rect fill="#FFFFFF" height="2" style="stroke:#000000;stroke-width:1.0;" width="4" x="2124.5" y="67"/><text fill="#000000" font-family="Verdana" font-size="14" font-style="italic" lengthAdjust="spacing" textLength="179" x="1041" y="88.0752">&#171;Asynchronous Adapter&#187;</text><text fill="#000000" font-family="Verdana" font-size="14" font-weight="bold" lengthAdjust="spacing" textLength="166" x="1047.5" y="115.0898">Orion_Slave_Adapter</text></g><!--cluster comp--><g id="cluster_comp"><rect fill="#FFFFFF" height="576" rx="2.5" ry="2.5" style="stroke:#000000;stroke-width:1.0;" width="587" x="1236.5" y="56"/><rect fill="#FFFFFF" height="10" style="stroke:#000000;stroke-width:1.0;" width="15" x="1803.5" y="61"/><rect fill="#FFFFFF" height="2" style="stroke:#000000;stroke-width:1.0;" width="4" x="1801.5" y="63"/><rect fill="#FFFFFF" height="2" style="stroke:#000000;stroke-width:1.0;" width="4" x="1801.5" y="67"/><text fill="#000000" font-family="Verdana" font-size="14" font-weight="bold" lengthAdjust="spacing" textLength="216" x="1422" y="88.0752">slave : Orion_Slave_SM_ext</text></g><text fill="#000000" font-family="Verdana" font-size="14" lengthAdjust="spacing" textLength="75" x="77" y="179.0605">Block_Port</text><rect fill="#FFFFFF" height="12" style="stroke:#000000;stroke-width:1.5;" width="12" x="108.5" y="199"/><text fill="#000000" font-family="Verdana" font-size="14" lengthAdjust="spacing" textLength="117" x="61.5" y="585.0752">Connection_Port</text><rect fill="#FFFFFF" height="12" style="stroke:#000000;stroke-width:1.5;" width="12" x="114" y="554"/><text fill="#000000" font-family="Verdana" font-size="14" lengthAdjust="spacing" textLength="131" x="56" y="489.0752">StateMachine_Port</text><rect fill="#FFFFFF" height="12" style="stroke:#000000;stroke-width:1.5;" width="12" x="115.5" y="458"/><text fill="#000000" font-family="Verdana" font-size="14" lengthAdjust="spacing" textLength="251" x="11" y="342.0605">TimeoutKeepAliveReceiveTimeout_4</text><rect fill="#FFFFFF" height="12" style="stroke:#000000;stroke-width:1.5;" width="12" x="130.5" y="362"/><text fill="#000000" font-family="Verdana" font-size="14" lengthAdjust="spacing" textLength="158" x="46.5" y="246.0605">TimeoutKapcsolodik_3</text><rect fill="#FFFFFF" height="12" style="stroke:#000000;stroke-width:1.5;" width="12" x="119.5" y="266"/><text fill="#000000" font-family="Verdana" font-size="14" lengthAdjust="spacing" textLength="235" x="17" y="91.0605">TimeoutKeepAliveSendTimeout_0</text><rect fill="#FFFFFF" height="12" style="stroke:#000000;stroke-width:1.5;" width="12" x="128.5" y="111"/><text fill="#000000" font-family="Verdana" font-size="14" lengthAdjust="spacing" textLength="176" x="2045.5" y="657.0752">Send_StateMachine_Port</text><rect fill="#FFFFFF" height="12" style="stroke:#000000;stroke-width:1.5;" width="12" x="2127.5" y="626"/><text fill="#000000" font-family="Verdana" font-size="14" lengthAdjust="spacing" textLength="194" x="2039" y="561.0752">Process_StateMachine_Port</text><rect fill="#FFFFFF" height="12" style="stroke:#000000;stroke-width:1.5;" width="12" x="2130" y="530"/><text fill="#000000" font-family="Verdana" font-size="14" lengthAdjust="spacing" textLength="187" x="2041" y="465.0752">Handle_StateMachine_Port</text><rect fill="#FFFFFF" height="12" style="stroke:#000000;stroke-width:1.5;" width="12" x="2128.5" y="434"/><text fill="#000000" font-family="Verdana" font-size="14" lengthAdjust="spacing" textLength="283" x="2005" y="318.0605">TimeoutKeepAliveReceiveTimeout_4_req</text><rect fill="#FFFFFF" height="12" style="stroke:#000000;stroke-width:1.5;" width="12" x="2140.5" y="338"/><text fill="#000000" font-family="Verdana" font-size="14" lengthAdjust="spacing" textLength="190" x="2040.5" y="222.0605">TimeoutKapcsolodik_3_req</text><rect fill="#FFFFFF" height="12" style="stroke:#000000;stroke-width:1.5;" width="12" x="2129.5" y="242"/><text fill="#000000" font-family="Verdana" font-size="14" lengthAdjust="spacing" textLength="267" x="2011" y="126.0605">TimeoutKeepAliveSendTimeout_0_req</text><rect fill="#FFFFFF" height="12" style="stroke:#000000;stroke-width:1.5;" width="12" x="2138.5" y="146"/><text fill="#000000" font-family="Verdana" font-size="14" lengthAdjust="spacing" textLength="47" x="2093.5" y="30.0605">Status</text><rect fill="#FFFFFF" height="12" style="stroke:#000000;stroke-width:1.5;" width="12" x="2111" y="50"/><!--entity q1--><g id="elem_q1"><path d="M621.5,265.48 L722.5,265.48 C727.5,265.48 727.5,301.002 727.5,301.002 C727.5,301.002 727.5,336.5239 722.5,336.5239 L621.5,336.5239 C616.5,336.5239 616.5,301.002 616.5,301.002 C616.5,301.002 616.5,265.48 621.5,265.48 " fill="#FFFFFF" style="stroke:#000000;stroke-width:1.0;"/><path d="M722.5,265.48 C717.5,265.48 717.5,301.002 717.5,301.002 C717.5,336.5239 722.5,336.5239 722.5,336.5239 " fill="none" style="stroke:#000000;stroke-width:1.0;"/><text fill="#000000" font-family="Verdana" font-size="14" lengthAdjust="spacing" textLength="18" x="626.5" y="289.5552">q1</text><text fill="#000000" font-family="Verdana" font-size="14" lengthAdjust="spacing" textLength="81" x="626.5" y="306.5698">capacity=1,</text><text fill="#000000" font-family="Verdana" font-size="14" lengthAdjust="spacing" textLength="70" x="626.5" y="323.5845">priority=1</text></g><!--entity Triggers--><g id="elem_Triggers"><rect fill="#FFFFFF" height="261.1025" rx="2.5" ry="2.5" style="stroke:#000000;stroke-width:1.0;" width="687" x="328.5" y="386.45"/><text fill="#000000" font-family="Verdana" font-size="14" lengthAdjust="spacing" textLength="58" x="343.5" y="408.5252">Triggers</text><line style="stroke:#000000;stroke-width:1.0;" x1="329.5" x2="1014.5" y1="416.4646" y2="416.4646"/><text fill="#000000" font-family="Verdana" font-size="14" lengthAdjust="spacing" textLength="305" x="343.5" y="439.5398">when Block_Port.Block_Port.any / run once</text><line style="stroke:#000000;stroke-width:1.0;stroke-dasharray:1.0,2.0;" x1="329.5" x2="1014.5" y1="451.4793" y2="451.4793"/><text fill="#000000" font-family="Verdana" font-size="14" lengthAdjust="spacing" textLength="389" x="343.5" y="474.5545">when Connection_Port.Connection_Port.any / run once</text><line style="stroke:#000000;stroke-width:1.0;stroke-dasharray:1.0,2.0;" x1="329.5" x2="1014.5" y1="486.4939" y2="486.4939"/><text fill="#000000" font-family="Verdana" font-size="14" lengthAdjust="spacing" textLength="417" x="343.5" y="509.5691">when StateMachine_Port.StateMachine_Port.any / run once</text><line style="stroke:#000000;stroke-width:1.0;stroke-dasharray:1.0,2.0;" x1="329.5" x2="1014.5" y1="521.5086" y2="521.5086"/><text fill="#000000" font-family="Verdana" font-size="14" lengthAdjust="spacing" textLength="471" x="343.5" y="544.5838">when TimeoutKapcsolodik_3.TimeoutKapcsolodik_3.any / run once</text><line style="stroke:#000000;stroke-width:1.0;stroke-dasharray:1.0,2.0;" x1="329.5" x2="1014.5" y1="556.5232" y2="556.5232"/><text fill="#000000" font-family="Verdana" font-size="14" lengthAdjust="spacing" textLength="657" x="343.5" y="579.5984">when TimeoutKeepAliveReceiveTimeout_4.TimeoutKeepAliveReceiveTimeout_4.any / run once</text><line style="stroke:#000000;stroke-width:1.0;stroke-dasharray:1.0,2.0;" x1="329.5" x2="1014.5" y1="591.5379" y2="591.5379"/><text fill="#000000" font-family="Verdana" font-size="14" lengthAdjust="spacing" textLength="625" x="343.5" y="614.6131">when TimeoutKeepAliveSendTimeout_0.TimeoutKeepAliveSendTimeout_0.any / run once</text><line style="stroke:#000000;stroke-width:1.0;stroke-dasharray:1.0,2.0;" x1="329.5" x2="1014.5" y1="626.5525" y2="626.5525"/></g><text fill="#000000" font-family="Verdana" font-size="14" lengthAdjust="spacing" textLength="75" x="1199" y="53.0605">Block_Port</text><rect fill="#FFFFFF" height="12" style="stroke:#000000;stroke-width:1.5;" width="12" x="1230.5" y="73"/><text fill="#000000" font-family="Verdana" font-size="14" lengthAdjust="spacing" textLength="117" x="1183.5" y="554.0752">Connection_Port</text><rect fill="#FFFFFF" height="12" style="stroke:#000000;stroke-width:1.5;" width="12" x="1236" y="523"/><text fill="#000000" font-family="Verdana" font-size="14" lengthAdjust="spacing" textLength="131" x="1178" y="458.0752">StateMachine_Port</text><rect fill="#FFFFFF" height="12" style="stroke:#000000;stroke-width:1.5;" width="12" x="1237.5" y="427"/><text fill="#000000" font-family="Verdana" font-size="14" lengthAdjust="spacing" textLength="251" x="1133" y="311.0605">TimeoutKeepAliveReceiveTimeout_4</text><rect fill="#FFFFFF" height="12" style="stroke:#000000;stroke-width:1.5;" width="12" x="1252.5" y="331"/><text fill="#000000" font-family="Verdana" font-size="14" lengthAdjust="spacing" textLength="158" x="1168.5" y="215.0605">TimeoutKapcsolodik_3</text><rect fill="#FFFFFF" height="12" style="stroke:#000000;stroke-width:1.5;" width="12" x="1241.5" y="235"/><text fill="#000000" font-family="Verdana" font-size="14" lengthAdjust="spacing" textLength="235" x="1139" y="119.0605">TimeoutKeepAliveSendTimeout_0</text><rect fill="#FFFFFF" height="12" style="stroke:#000000;stroke-width:1.5;" width="12" x="1250.5" y="139"/><text fill="#000000" font-family="Verdana" font-size="14" lengthAdjust="spacing" textLength="176" x="1704.5" y="657.0752">Send_StateMachine_Port</text><rect fill="#FFFFFF" height="12" style="stroke:#000000;stroke-width:1.5;" width="12" x="1786.5" y="626"/><text fill="#000000" font-family="Verdana" font-size="14" lengthAdjust="spacing" textLength="194" x="1698" y="561.0752">Process_StateMachine_Port</text><rect fill="#FFFFFF" height="12" style="stroke:#000000;stroke-width:1.5;" width="12" x="1789" y="530"/><text fill="#000000" font-family="Verdana" font-size="14" lengthAdjust="spacing" textLength="187" x="1700" y="465.0752">Handle_StateMachine_Port</text><rect fill="#FFFFFF" height="12" style="stroke:#000000;stroke-width:1.5;" width="12" x="1787.5" y="434"/><text fill="#000000" font-family="Verdana" font-size="14" lengthAdjust="spacing" textLength="283" x="1664" y="318.0605">TimeoutKeepAliveReceiveTimeout_4_req</text><rect fill="#FFFFFF" height="12" style="stroke:#000000;stroke-width:1.5;" width="12" x="1799.5" y="338"/><text fill="#000000" font-family="Verdana" font-size="14" lengthAdjust="spacing" textLength="190" x="1699.5" y="222.0605">TimeoutKapcsolodik_3_req</text><rect fill="#FFFFFF" height="12" style="stroke:#000000;stroke-width:1.5;" width="12" x="1788.5" y="242"/><text fill="#000000" font-family="Verdana" font-size="14" lengthAdjust="spacing" textLength="267" x="1670" y="126.0605">TimeoutKeepAliveSendTimeout_0_req</text><rect fill="#FFFFFF" height="12" style="stroke:#000000;stroke-width:1.5;" width="12" x="1797.5" y="146"/><text fill="#000000" font-family="Verdana" font-size="14" lengthAdjust="spacing" textLength="47" x="1752.5" y="30.0605">Status</text><rect fill="#FFFFFF" height="12" style="stroke:#000000;stroke-width:1.5;" width="12" x="1770" y="50"/><!--link comp_Send_StateMachine_Port to c_Send_StateMachine_Port--><g id="link_comp_Send_StateMachine_Port_c_Send_StateMachine_Port"><path d="M1798.29,632 C1834.39,632 2081.33,632 2121.6,632 " fill="none" id="comp_Send_StateMachine_Port-to-c_Send_StateMachine_Port" style="stroke:#000000;stroke-width:1.0;stroke-dasharray:7.0,7.0;"/><polygon fill="#000000" points="2127.6,632,2118.6,628,2122.6,632,2118.6,636,2127.6,632" style="stroke:#000000;stroke-width:1.0;"/></g><!--link comp_Process_StateMachine_Port to c_Process_StateMachine_Port--><g id="link_comp_Process_StateMachine_Port_c_Process_StateMachine_Port"><path d="M1800.8,536 C1838.94,536 2086.9,536 2124.38,536 " fill="none" id="comp_Process_StateMachine_Port-to-c_Process_StateMachine_Port" style="stroke:#000000;stroke-width:1.0;stroke-dasharray:7.0,7.0;"/><polygon fill="#000000" points="2130.38,536,2121.38,532,2125.38,536,2121.38,540,2130.38,536" style="stroke:#000000;stroke-width:1.0;"/></g><!--link comp_Handle_StateMachine_Port to c_Handle_StateMachine_Port--><g id="link_comp_Handle_StateMachine_Port_c_Handle_StateMachine_Port"><path d="M1799.29,440 C1835.39,440 2082.33,440 2122.6,440 " fill="none" id="comp_Handle_StateMachine_Port-to-c_Handle_StateMachine_Port" style="stroke:#000000;stroke-width:1.0;stroke-dasharray:7.0,7.0;"/><polygon fill="#000000" points="2128.6,440,2119.6,436,2123.6,440,2119.6,444,2128.6,440" style="stroke:#000000;stroke-width:1.0;"/></g><!--link comp_TimeoutKeepAliveReceiveTimeout_4_req to c_TimeoutKeepAliveReceiveTimeout_4_req--><g id="link_comp_TimeoutKeepAliveReceiveTimeout_4_req_c_TimeoutKeepAliveReceiveTimeout_4_req"><path d="M1811.29,344 C1847.39,344 2094.33,344 2134.6,344 " fill="none" id="comp_TimeoutKeepAliveReceiveTimeout_4_req-to-c_TimeoutKeepAliveReceiveTimeout_4_req" style="stroke:#000000;stroke-width:1.0;stroke-dasharray:7.0,7.0;"/><polygon fill="#000000" points="2140.6,344,2131.6,340,2135.6,344,2131.6,348,2140.6,344" style="stroke:#000000;stroke-width:1.0;"/></g><!--link comp_TimeoutKapcsolodik_3_req to c_TimeoutKapcsolodik_3_req--><g id="link_comp_TimeoutKapcsolodik_3_req_c_TimeoutKapcsolodik_3_req"><path d="M1800.29,248 C1836.39,248 2083.33,248 2123.6,248 " fill="none" id="comp_TimeoutKapcsolodik_3_req-to-c_TimeoutKapcsolodik_3_req" style="stroke:#000000;stroke-width:1.0;stroke-dasharray:7.0,7.0;"/><polygon fill="#000000" points="2129.6,248,2120.6,244,2124.6,248,2120.6,252,2129.6,248" style="stroke:#000000;stroke-width:1.0;"/></g><!--link comp_TimeoutKeepAliveSendTimeout_0_req to c_TimeoutKeepAliveSendTimeout_0_req--><g id="link_comp_TimeoutKeepAliveSendTimeout_0_req_c_TimeoutKeepAliveSendTimeout_0_req"><path d="M1809.29,152 C1845.39,152 2092.33,152 2132.6,152 " fill="none" id="comp_TimeoutKeepAliveSendTimeout_0_req-to-c_TimeoutKeepAliveSendTimeout_0_req" style="stroke:#000000;stroke-width:1.0;stroke-dasharray:7.0,7.0;"/><polygon fill="#000000" points="2138.6,152,2129.6,148,2133.6,152,2129.6,156,2138.6,152" style="stroke:#000000;stroke-width:1.0;"/></g><!--link comp_Status to c_Status--><g id="link_comp_Status_c_Status"><path d="M1781.8,56 C1819.94,56 2067.9,56 2105.38,56 " fill="none" id="comp_Status-to-c_Status" style="stroke:#000000;stroke-width:1.0;stroke-dasharray:7.0,7.0;"/><polygon fill="#000000" points="2111.38,56,2102.38,52,2106.38,56,2102.38,60,2111.38,56" style="stroke:#000000;stroke-width:1.0;"/></g><!--link c_Block_Port to q1--><g id="link_c_Block_Port_q1"><path d="M120.47,205.77 C162.22,212.99 479.5678,267.8874 610.3978,290.5174 " fill="none" id="c_Block_Port-to-q1" style="stroke:#000000;stroke-width:1.0;stroke-dasharray:7.0,7.0;"/><polygon fill="#000000" points="616.31,291.54,608.1235,286.0646,611.3832,290.6878,606.7599,293.9475,616.31,291.54" style="stroke:#000000;stroke-width:1.0;"/><text fill="#000000" font-family="Verdana" font-size="13" lengthAdjust="spacing" textLength="24" x="266.5" y="223.0698">any</text></g><!--link q1 to comp_Block_Port--><g id="link_q1_comp_Block_Port"><path d="M727.98,273.59 C809.19,233.9 966.71,159.93 1106.5,112 C1153.69,95.82 1207.0744,84.7059 1224.8444,81.1859 " fill="none" id="q1-to-comp_Block_Port" style="stroke:#000000;stroke-width:1.0;stroke-dasharray:7.0,7.0;"/><polygon fill="#000000" points="1230.73,80.02,1221.1243,77.845,1225.8253,80.9916,1222.6788,85.6926,1230.73,80.02" style="stroke:#000000;stroke-width:1.0;"/><text fill="#000000" font-family="Verdana" font-size="13" lengthAdjust="spacing" textLength="24" x="1052.5" y="113.0698">any</text></g><!--link c_Connection_Port to q1--><g id="link_c_Connection_Port_q1"><path d="M125.73,557.64 C141.2,549.85 191.44,523.91 229.5,497 C261.43,474.43 274.42,472.26 296.5,440 C305.67,426.6 308.26,381.66 320.5,371 C403.67,298.55 534.3359,292.6942 610.0959,296.0542 " fill="none" id="c_Connection_Port-to-q1" style="stroke:#000000;stroke-width:1.0;stroke-dasharray:7.0,7.0;"/><polygon fill="#000000" points="616.09,296.32,607.2761,291.9252,611.0949,296.0985,606.9216,299.9173,616.09,296.32" style="stroke:#000000;stroke-width:1.0;"/><text fill="#000000" font-family="Verdana" font-size="13" lengthAdjust="spacing" textLength="24" x="266.5" y="432.0698">any</text></g><!--link q1 to comp_Connection_Port--><g id="link_q1_comp_Connection_Port"><path d="M727.77,299.23 C800.12,299.59 928.52,309.8 1015.5,371 C1037.2,386.26 1028.58,402.45 1046.5,422 C1068.85,446.37 1078.06,449.13 1106.5,466 C1154.85,494.68 1212.7999,518.0205 1230.5999,524.9605 " fill="none" id="q1-to-comp_Connection_Port" style="stroke:#000000;stroke-width:1.0;stroke-dasharray:7.0,7.0;"/><polygon fill="#000000" points="1236.19,527.14,1229.2578,520.144,1231.5316,525.3237,1226.3518,527.5975,1236.19,527.14" style="stroke:#000000;stroke-width:1.0;"/><text fill="#000000" font-family="Verdana" font-size="13" lengthAdjust="spacing" textLength="24" x="1052.5" y="414.0698">any</text></g><!--link c_StateMachine_Port to q1--><g id="link_c_StateMachine_Port_q1"><path d="M127.43,462.36 C147.5,454.85 231.82,422.57 296.5,387 C307.74,380.82 308.66,375.9 320.5,371 C419.98,329.81 539.6393,312.8925 610.2793,305.8825 " fill="none" id="c_StateMachine_Port-to-q1" style="stroke:#000000;stroke-width:1.0;stroke-dasharray:7.0,7.0;"/><polygon fill="#000000" points="616.25,305.29,606.899,302.1983,611.2744,305.7838,607.689,310.1592,616.25,305.29" style="stroke:#000000;stroke-width:1.0;"/><text fill="#000000" font-family="Verdana" font-size="13" lengthAdjust="spacing" textLength="24" x="266.5" y="379.0698">any</text></g><!--link q1 to comp_StateMachine_Port--><g id="link_q1_comp_StateMachine_Port"><path d="M727.82,311.07 C795.64,323.8 914.55,346.95 1015.5,371 C1105.11,392.34 1207.1884,422.3514 1231.9984,429.7214 " fill="none" id="q1-to-comp_StateMachine_Port" style="stroke:#000000;stroke-width:1.0;stroke-dasharray:7.0,7.0;"/><polygon fill="#000000" points="1237.75,431.43,1230.2616,425.0328,1232.957,430.0062,1227.9836,432.7016,1237.75,431.43" style="stroke:#000000;stroke-width:1.0;"/><text fill="#000000" font-family="Verdana" font-size="13" lengthAdjust="spacing" textLength="24" x="1052.5" y="371.0698">any</text></g><!--link c_TimeoutKapcsolodik_3 to q1--><g id="link_c_TimeoutKapcsolodik_3_q1"><path d="M131.38,272.23 C172.21,274.41 481.6085,290.9005 610.4485,297.7705 " fill="none" id="c_TimeoutKapcsolodik_3-to-q1" style="stroke:#000000;stroke-width:1.0;stroke-dasharray:7.0,7.0;"/><polygon fill="#000000" points="616.44,298.09,607.6658,293.6165,611.4471,297.8238,607.2398,301.6051,616.44,298.09" style="stroke:#000000;stroke-width:1.0;"/><text fill="#000000" font-family="Verdana" font-size="13" lengthAdjust="spacing" textLength="24" x="266.5" y="272.0698">any</text></g><!--link q1 to comp_TimeoutKapcsolodik_3--><g id="link_q1_comp_TimeoutKapcsolodik_3"><path d="M727.78,295.27 C861.17,281.33 1189.3425,247.0234 1235.6725,242.1834 " fill="none" id="q1-to-comp_TimeoutKapcsolodik_3" style="stroke:#000000;stroke-width:1.0;stroke-dasharray:7.0,7.0;"/><polygon fill="#000000" points="1241.64,241.56,1232.2731,238.5168,1236.6671,242.0795,1233.1043,246.4735,1241.64,241.56" style="stroke:#000000;stroke-width:1.0;"/><text fill="#000000" font-family="Verdana" font-size="13" lengthAdjust="spacing" textLength="24" x="1052.5" y="251.0698">any</text></g><!--link c_TimeoutKeepAliveReceiveTimeout_4 to q1--><g id="link_c_TimeoutKeepAliveReceiveTimeout_4_q1"><path d="M142.29,367.46 C182.15,362.45 483.0768,324.618 610.1868,308.648 " fill="none" id="c_TimeoutKeepAliveReceiveTimeout_4-to-q1" style="stroke:#000000;stroke-width:1.0;stroke-dasharray:7.0,7.0;"/><polygon fill="#000000" points="616.14,307.9,606.7116,305.0531,611.179,308.5233,607.7088,312.9907,616.14,307.9" style="stroke:#000000;stroke-width:1.0;"/><text fill="#000000" font-family="Verdana" font-size="13" lengthAdjust="spacing" textLength="24" x="266.5" y="341.0698">any</text></g><!--link q1 to comp_TimeoutKeepAliveReceiveTimeout_4--><g id="link_q1_comp_TimeoutKeepAliveReceiveTimeout_4"><path d="M727.78,304.37 C862.98,312.69 1199.0813,333.3714 1246.5213,336.2914 " fill="none" id="q1-to-comp_TimeoutKeepAliveReceiveTimeout_4" style="stroke:#000000;stroke-width:1.0;stroke-dasharray:7.0,7.0;"/><polygon fill="#000000" points="1252.51,336.66,1243.7727,332.1146,1247.5194,336.3528,1243.2813,340.0995,1252.51,336.66" style="stroke:#000000;stroke-width:1.0;"/><text fill="#000000" font-family="Verdana" font-size="13" lengthAdjust="spacing" textLength="24" x="1052.5" y="317.0698">any</text></g><!--link c_TimeoutKeepAliveSendTimeout_0 to q1--><g id="link_c_TimeoutKeepAliveSendTimeout_0_q1"><path d="M140.31,118.48 C180.36,132.26 483.4362,236.4887 610.7362,280.2687 " fill="none" id="c_TimeoutKeepAliveSendTimeout_0-to-q1" style="stroke:#000000;stroke-width:1.0;stroke-dasharray:7.0,7.0;"/><polygon fill="#000000" points="616.41,282.22,609.2001,275.5105,611.6818,280.5939,606.5984,283.0756,616.41,282.22" style="stroke:#000000;stroke-width:1.0;"/><text fill="#000000" font-family="Verdana" font-size="13" lengthAdjust="spacing" textLength="24" x="266.5" y="153.0698">any</text></g><!--link q1 to comp_TimeoutKeepAliveSendTimeout_0--><g id="link_q1_comp_TimeoutKeepAliveSendTimeout_0"><path d="M727.85,286.32 C862.78,250.22 1197.5241,160.6515 1244.7441,148.0115 " fill="none" id="q1-to-comp_TimeoutKeepAliveSendTimeout_0" style="stroke:#000000;stroke-width:1.0;stroke-dasharray:7.0,7.0;"/><polygon fill="#000000" points="1250.54,146.46,1240.8118,144.9233,1245.71,147.7529,1242.8804,152.6512,1250.54,146.46" style="stroke:#000000;stroke-width:1.0;"/><text fill="#000000" font-family="Verdana" font-size="13" lengthAdjust="spacing" textLength="24" x="1052.5" y="184.0698">any</text></g><!--SRC=[xLV1Rjim33rRNy7bl7ajkbsAh41NODWm52kMteh2K6Ks4U98ZYIt2uR- - -JKZcNBijq1kmpD9JB9zyJmYPIZrrpaLD4Dw1LDvICNIxYdcKP2TD3rngnmWv1db0kIuRq18q7nvSf0oXKomwLmu4Acg367aoF7gAXOLqR7cjCqBVVvI5mh5mRLFMKudtyJ3rppkmpFpk0t0RYJAaLr8JEfuDfoQej0OKeFPUkbaeL8-xpQCg8qkno_I67yY2T2cDpaKjW7cFrGzXSbYum-O7AUqjo2P_FvkTu9jb9Io493PTwd5P5SAiC5p3vdagsJA_iq0wg19OtX47CXXNYkcHlOiHwY5uOQlAHinGMwyPxzWBZc6vI5-OwOdsVy0NyYG_jLcPCF5S5OcCT7SwPjtLA-Jauw7AuhcCS2HLgp7mMIQCMGrxB-kxBQfQs2jIV1KlGw6_2LaWor3kA3_eRYAnLfXa66aBiX6Ajsed0xKPWor2Ts9UWXwxh3cRKa64ZBYtFKidKej7DG2_sgvV-aPHIvbv0khnyu1VSoMbmc-AiggOqixvxGZBHkTqn6WtEo3EwEocXaLfOONyxePVEo91aTcT7up7HvMcCpUi7Sx4kcFJgZIUsshqn_nqLJMwxa27TTDB7jIfPWvqL_qNfJzDgVz6XY-uM42v2CjE2eWXrQjmthysmxqRuDaW4L8OxZi_1K7TQk1eV57LIjXWTLdInHpJH9pa6TkaoUZjDq2INa2-XeTT2Ycg7R0Wk4xJ703TaU4qPpohZPVJf-It8xIDL-JMw9-mxvp64nfp2ZOZUpm8gsFKGFVk-zSfYX6zpG1EGD4VdX3LLVyOVPUX4-OUXSJ2CFeiCRjVH-sIvjQ0snfq2bzkyUNovHwHjIhyWx-o6FAnJGY1mxIuk6zw0A0L8m97RV-3cyesZSVGu2FGLZtn84zmaMznf7AKAonAC1awbRMiJ3tZxIM_Bq1m00]--></g></svg>