<?xml version="1.0" encoding="us-ascii" standalone="no"?><svg xmlns="http://www.w3.org/2000/svg" xmlns:xlink="http://www.w3.org/1999/xlink" contentStyleType="text/css" height="572px" preserveAspectRatio="none" style="width:2666px;height:572px;background:#FFFFFF;" version="1.1" viewBox="0 0 2666 572" width="2666px" zoomAndPan="magnify"><defs/><g><!--cluster Orion_Environment--><g id="cluster_Orion_Environment"><rect fill="#FFFFFF" height="543" rx="2.5" ry="2.5" style="stroke:#000000;stroke-width:1.0;" width="2576" x="12" y="23.4688"/><text fill="#000000" font-family="Verdana" font-size="10" font-style="italic" lengthAdjust="spacing" textLength="136" x="1232" y="36.5225">&#171;stochastic asynchronous&#187;</text><text fill="#000000" font-family="Verdana" font-size="12" font-weight="bold" lengthAdjust="spacing" textLength="129" x="1235.5" y="52.6865">Orion_Environment</text></g><!--cluster orionSystem--><g id="cluster_orionSystem"><rect fill="#FFFFFF" height="130" rx="2.5" ry="2.5" style="stroke:#000000;stroke-width:1.0;" width="1889.5" x="401.5" y="65.4688"/><text fill="#000000" font-family="Verdana" font-size="12" font-weight="bold" lengthAdjust="spacing" textLength="88" x="1302.25" y="80.5332">orionSystem:</text><text fill="#000000" font-family="Verdana" font-size="12" font-weight="bold" lengthAdjust="spacing" textLength="123" x="1284.75" y="95.1172">OrionStochSystem</text></g><!--cluster DelayKeepAliveReceiveTimeout_3--><g id="cluster_DelayKeepAliveReceiveTimeout_3"><rect fill="#FFFFFF" height="166" rx="2.5" ry="2.5" style="stroke:#000000;stroke-width:1.0;" width="243" x="78" y="358.4688"/><text fill="#000000" font-family="Verdana" font-size="10" font-style="italic" lengthAdjust="spacing" textLength="97" x="151" y="371.5225">&#171;Stochastic Delay&#187;</text><text fill="#000000" font-family="Verdana" font-size="12" font-weight="bold" lengthAdjust="spacing" textLength="227" x="84" y="387.6865">DelayKeepAliveReceiveTimeout_3</text><line style="stroke:#000000;stroke-width:1.0;" x1="83" x2="316" y1="395.2061" y2="395.2061"/><text fill="#000000" font-family="Verdana" font-size="10" font-weight="bold" lengthAdjust="spacing" textLength="182" x="108.5" y="410.2598">*.* : Normal(loc=5.0,scale=0.1)</text><text fill="#000000" font-family="Verdana" font-size="12" font-weight="bold" lengthAdjust="spacing" textLength="4" x="197.5" y="424.4238">&#160;</text></g><!--cluster DelayKapcsolodik_2--><g id="cluster_DelayKapcsolodik_2"><rect fill="#FFFFFF" height="166" rx="2.5" ry="2.5" style="stroke:#000000;stroke-width:1.0;" width="194" x="477.25" y="358.4688"/><text fill="#000000" font-family="Verdana" font-size="10" font-style="italic" lengthAdjust="spacing" textLength="97" x="525.75" y="371.5225">&#171;Stochastic Delay&#187;</text><text fill="#000000" font-family="Verdana" font-size="12" font-weight="bold" lengthAdjust="spacing" textLength="135" x="504.75" y="387.6865">DelayKapcsolodik_2</text><line style="stroke:#000000;stroke-width:1.0;" x1="482.25" x2="666.25" y1="395.2061" y2="395.2061"/><text fill="#000000" font-family="Verdana" font-size="10" font-weight="bold" lengthAdjust="spacing" textLength="182" x="483.25" y="410.2598">*.* : Normal(loc=5.0,scale=0.1)</text><text fill="#000000" font-family="Verdana" font-size="12" font-weight="bold" lengthAdjust="spacing" textLength="4" x="572.25" y="424.4238">&#160;</text></g><!--cluster DelayZarva_0--><g id="cluster_DelayZarva_0"><rect fill="#FFFFFF" height="166" rx="2.5" ry="2.5" style="stroke:#000000;stroke-width:1.0;" width="194" x="790" y="358.4688"/><text fill="#000000" font-family="Verdana" font-size="10" font-style="italic" lengthAdjust="spacing" textLength="97" x="838.5" y="371.5225">&#171;Stochastic Delay&#187;</text><text fill="#000000" font-family="Verdana" font-size="12" font-weight="bold" lengthAdjust="spacing" textLength="94" x="838" y="387.6865">DelayZarva_0</text><line style="stroke:#000000;stroke-width:1.0;" x1="795" x2="979" y1="395.2061" y2="395.2061"/><text fill="#000000" font-family="Verdana" font-size="10" font-weight="bold" lengthAdjust="spacing" textLength="182" x="796" y="410.2598">*.* : Normal(loc=5.0,scale=0.1)</text><text fill="#000000" font-family="Verdana" font-size="12" font-weight="bold" lengthAdjust="spacing" textLength="4" x="885" y="424.4238">&#160;</text></g><!--cluster DelayKeepAliveSendTimeout_1--><g id="cluster_DelayKeepAliveSendTimeout_1"><rect fill="#FFFFFF" height="166" rx="2.5" ry="2.5" style="stroke:#000000;stroke-width:1.0;" width="224" x="1094" y="358.4688"/><text fill="#000000" font-family="Verdana" font-size="10" font-style="italic" lengthAdjust="spacing" textLength="97" x="1157.5" y="371.5225">&#171;Stochastic Delay&#187;</text><text fill="#000000" font-family="Verdana" font-size="12" font-weight="bold" lengthAdjust="spacing" textLength="208" x="1100" y="387.6865">DelayKeepAliveSendTimeout_1</text><line style="stroke:#000000;stroke-width:1.0;" x1="1099" x2="1313" y1="395.2061" y2="395.2061"/><text fill="#000000" font-family="Verdana" font-size="10" font-weight="bold" lengthAdjust="spacing" textLength="182" x="1115" y="410.2598">*.* : Normal(loc=4.0,scale=0.1)</text><text fill="#000000" font-family="Verdana" font-size="12" font-weight="bold" lengthAdjust="spacing" textLength="4" x="1204" y="424.4238">&#160;</text></g><!--cluster DelayKeepAliveReceiveTimeout_4--><g id="cluster_DelayKeepAliveReceiveTimeout_4"><rect fill="#FFFFFF" height="166" rx="2.5" ry="2.5" style="stroke:#000000;stroke-width:1.0;" width="243" x="1440" y="358.4688"/><text fill="#000000" font-family="Verdana" font-size="10" font-style="italic" lengthAdjust="spacing" textLength="97" x="1513" y="371.5225">&#171;Stochastic Delay&#187;</text><text fill="#000000" font-family="Verdana" font-size="12" font-weight="bold" lengthAdjust="spacing" textLength="227" x="1446" y="387.6865">DelayKeepAliveReceiveTimeout_4</text><line style="stroke:#000000;stroke-width:1.0;" x1="1445" x2="1678" y1="395.2061" y2="395.2061"/><text fill="#000000" font-family="Verdana" font-size="10" font-weight="bold" lengthAdjust="spacing" textLength="182" x="1470.5" y="410.2598">*.* : Normal(loc=5.0,scale=0.1)</text><text fill="#000000" font-family="Verdana" font-size="12" font-weight="bold" lengthAdjust="spacing" textLength="4" x="1559.5" y="424.4238">&#160;</text></g><!--cluster DelayKapcsolodik_3--><g id="cluster_DelayKapcsolodik_3"><rect fill="#FFFFFF" height="166" rx="2.5" ry="2.5" style="stroke:#000000;stroke-width:1.0;" width="194" x="1854" y="358.4688"/><text fill="#000000" font-family="Verdana" font-size="10" font-style="italic" lengthAdjust="spacing" textLength="97" x="1902.5" y="371.5225">&#171;Stochastic Delay&#187;</text><text fill="#000000" font-family="Verdana" font-size="12" font-weight="bold" lengthAdjust="spacing" textLength="135" x="1881.5" y="387.6865">DelayKapcsolodik_3</text><line style="stroke:#000000;stroke-width:1.0;" x1="1859" x2="2043" y1="395.2061" y2="395.2061"/><text fill="#000000" font-family="Verdana" font-size="10" font-weight="bold" lengthAdjust="spacing" textLength="182" x="1860" y="410.2598">*.* : Normal(loc=5.0,scale=0.1)</text><text fill="#000000" font-family="Verdana" font-size="12" font-weight="bold" lengthAdjust="spacing" textLength="4" x="1949" y="424.4238">&#160;</text></g><!--cluster DelayKeepAliveSendTimeout_0--><g id="cluster_DelayKeepAliveSendTimeout_0"><rect fill="#FFFFFF" height="166" rx="2.5" ry="2.5" style="stroke:#000000;stroke-width:1.0;" width="224" x="2184" y="358.4688"/><text fill="#000000" font-family="Verdana" font-size="10" font-style="italic" lengthAdjust="spacing" textLength="97" x="2247.5" y="371.5225">&#171;Stochastic Delay&#187;</text><text fill="#000000" font-family="Verdana" font-size="12" font-weight="bold" lengthAdjust="spacing" textLength="208" x="2190" y="387.6865">DelayKeepAliveSendTimeout_0</text><line style="stroke:#000000;stroke-width:1.0;" x1="2189" x2="2403" y1="395.2061" y2="395.2061"/><text fill="#000000" font-family="Verdana" font-size="10" font-weight="bold" lengthAdjust="spacing" textLength="182" x="2205" y="410.2598">*.* : Normal(loc=4.0,scale=0.1)</text><text fill="#000000" font-family="Verdana" font-size="12" font-weight="bold" lengthAdjust="spacing" textLength="4" x="2294" y="424.4238">&#160;</text></g><text fill="#000000" font-family="Verdana" font-size="14" lengthAdjust="spacing" textLength="143" x="2516.5" y="222.5146">SystemConnStatus:</text><text fill="#000000" font-family="Verdana" font-size="14" lengthAdjust="spacing" textLength="117" x="2532" y="239.5293">ConnectionState</text><rect fill="#FFFFFF" height="12" style="stroke:#000000;stroke-width:1.5;" width="12" x="2582" y="255.4688"/><text fill="#000000" font-family="Verdana" font-size="14" lengthAdjust="spacing" textLength="257" x="291" y="26.5146">TimoeutKeepAliveReceiveTimeout_3:</text><text fill="#000000" font-family="Verdana" font-size="14" lengthAdjust="spacing" textLength="113" x="363" y="43.5293">~SoftwareTimer</text><rect fill="#FFFFFF" height="12" style="stroke:#000000;stroke-width:1.5;" width="12" x="413.5" y="59.4688"/><text fill="#000000" font-family="Verdana" font-size="14" lengthAdjust="spacing" textLength="164" x="575" y="26.5146">TimeoutKapcsolodik_2:</text><text fill="#000000" font-family="Verdana" font-size="14" lengthAdjust="spacing" textLength="113" x="600.5" y="43.5293">~SoftwareTimer</text><rect fill="#FFFFFF" height="12" style="stroke:#000000;stroke-width:1.5;" width="12" x="651" y="59.4688"/><text fill="#000000" font-family="Verdana" font-size="14" lengthAdjust="spacing" textLength="121" x="773" y="26.5146">TimeoutZarva_0:</text><text fill="#000000" font-family="Verdana" font-size="14" lengthAdjust="spacing" textLength="113" x="777" y="43.5293">~SoftwareTimer</text><rect fill="#FFFFFF" height="12" style="stroke:#000000;stroke-width:1.5;" width="12" x="827.5" y="59.4688"/><text fill="#000000" font-family="Verdana" font-size="14" lengthAdjust="spacing" textLength="241" x="948" y="26.5146">TimeoutKeepAliveSendTimeout_1:</text><text fill="#000000" font-family="Verdana" font-size="14" lengthAdjust="spacing" textLength="113" x="1012" y="43.5293">~SoftwareTimer</text><rect fill="#FFFFFF" height="12" style="stroke:#000000;stroke-width:1.5;" width="12" x="1062.5" y="59.4688"/><text fill="#000000" font-family="Verdana" font-size="14" lengthAdjust="spacing" textLength="257" x="1863" y="26.5146">TimeoutKeepAliveReceiveTimeout_4:</text><text fill="#000000" font-family="Verdana" font-size="14" lengthAdjust="spacing" textLength="113" x="1935" y="43.5293">~SoftwareTimer</text><rect fill="#FFFFFF" height="12" style="stroke:#000000;stroke-width:1.5;" width="12" x="1985.5" y="59.4688"/><text fill="#000000" font-family="Verdana" font-size="14" lengthAdjust="spacing" textLength="164" x="2147" y="26.5146">TimeoutKapcsolodik_3:</text><text fill="#000000" font-family="Verdana" font-size="14" lengthAdjust="spacing" textLength="113" x="2172.5" y="43.5293">~SoftwareTimer</text><rect fill="#FFFFFF" height="12" style="stroke:#000000;stroke-width:1.5;" width="12" x="2223" y="59.4688"/><text fill="#000000" font-family="Verdana" font-size="14" lengthAdjust="spacing" textLength="241" x="1582" y="26.5146">TimeoutKeepAliveSendTimeout_0:</text><text fill="#000000" font-family="Verdana" font-size="14" lengthAdjust="spacing" textLength="113" x="1646" y="43.5293">~SoftwareTimer</text><rect fill="#FFFFFF" height="12" style="stroke:#000000;stroke-width:1.5;" width="12" x="1696.5" y="59.4688"/><text fill="#000000" font-family="Verdana" font-size="14" lengthAdjust="spacing" textLength="289" x="295" y="216.5439">TimoeutKeepAliveReceiveTimeout_3_req:</text><text fill="#000000" font-family="Verdana" font-size="14" lengthAdjust="spacing" textLength="102" x="391" y="233.5586">SoftwareTimer</text><rect fill="#FFFFFF" height="12" style="stroke:#000000;stroke-width:1.5;" width="12" x="433.5" y="189.4688"/><text fill="#000000" font-family="Verdana" font-size="14" lengthAdjust="spacing" textLength="196" x="611" y="216.5439">TimeoutKapcsolodik_2_req:</text><text fill="#000000" font-family="Verdana" font-size="14" lengthAdjust="spacing" textLength="102" x="660.5" y="233.5586">SoftwareTimer</text><rect fill="#FFFFFF" height="12" style="stroke:#000000;stroke-width:1.5;" width="12" x="703" y="189.4688"/><text fill="#000000" font-family="Verdana" font-size="14" lengthAdjust="spacing" textLength="153" x="840" y="216.5439">TimeoutZarva_0_req:</text><text fill="#000000" font-family="Verdana" font-size="14" lengthAdjust="spacing" textLength="102" x="868" y="233.5586">SoftwareTimer</text><rect fill="#FFFFFF" height="12" style="stroke:#000000;stroke-width:1.5;" width="12" x="910.5" y="189.4688"/><text fill="#000000" font-family="Verdana" font-size="14" lengthAdjust="spacing" textLength="273" x="1046" y="216.5439">TimeoutKeepAliveSendTimeout_1_req:</text><text fill="#000000" font-family="Verdana" font-size="14" lengthAdjust="spacing" textLength="102" x="1134" y="233.5586">SoftwareTimer</text><rect fill="#FFFFFF" height="12" style="stroke:#000000;stroke-width:1.5;" width="12" x="1176.5" y="189.4688"/><text fill="#000000" font-family="Verdana" font-size="14" lengthAdjust="spacing" textLength="289" x="1359" y="216.5439">TimeoutKeepAliveReceiveTimeout_4_req:</text><text fill="#000000" font-family="Verdana" font-size="14" lengthAdjust="spacing" textLength="102" x="1455" y="233.5586">SoftwareTimer</text><rect fill="#FFFFFF" height="12" style="stroke:#000000;stroke-width:1.5;" width="12" x="1497.5" y="189.4688"/><text fill="#000000" font-family="Verdana" font-size="14" lengthAdjust="spacing" textLength="196" x="1675" y="216.5439">TimeoutKapcsolodik_3_req:</text><text fill="#000000" font-family="Verdana" font-size="14" lengthAdjust="spacing" textLength="102" x="1724.5" y="233.5586">SoftwareTimer</text><rect fill="#FFFFFF" height="12" style="stroke:#000000;stroke-width:1.5;" width="12" x="1767" y="189.4688"/><text fill="#000000" font-family="Verdana" font-size="14" lengthAdjust="spacing" textLength="273" x="1919" y="216.5439">TimeoutKeepAliveSendTimeout_0_req:</text><text fill="#000000" font-family="Verdana" font-size="14" lengthAdjust="spacing" textLength="102" x="2007" y="233.5586">SoftwareTimer</text><rect fill="#FFFFFF" height="12" style="stroke:#000000;stroke-width:1.5;" width="12" x="2049.5" y="189.4688"/><text fill="#000000" font-family="Verdana" font-size="14" lengthAdjust="spacing" textLength="106" x="2220" y="216.5439">SystemStatus:</text><text fill="#000000" font-family="Verdana" font-size="14" lengthAdjust="spacing" textLength="117" x="2217" y="233.5586">ConnectionState</text><rect fill="#FFFFFF" height="12" style="stroke:#000000;stroke-width:1.5;" width="12" x="2267" y="189.4688"/><text fill="#000000" font-family="Verdana" font-size="14" lengthAdjust="spacing" textLength="283" x="108" y="319.5146">TimoeutKeepAliveReceiveTimeout_3_req</text><text fill="#000000" font-family="Verdana" font-size="14" lengthAdjust="spacing" textLength="113" x="195.5" y="336.5293">~SoftwareTimer</text><rect fill="#FFFFFF" height="12" style="stroke:#000000;stroke-width:1.5;" width="12" x="243.5" y="352.4688"/><text fill="#000000" font-family="Verdana" font-size="14" lengthAdjust="spacing" textLength="257" x="108" y="545.5439">TimoeutKeepAliveReceiveTimeout_3:</text><text fill="#000000" font-family="Verdana" font-size="14" lengthAdjust="spacing" textLength="102" x="188" y="562.5586">SoftwareTimer</text><rect fill="#FFFFFF" height="12" style="stroke:#000000;stroke-width:1.5;" width="12" x="230.5" y="518.4688"/><text fill="#000000" font-family="Verdana" font-size="14" lengthAdjust="spacing" textLength="190" x="492.5" y="319.5146">TimeoutKapcsolodik_2_req</text><text fill="#000000" font-family="Verdana" font-size="14" lengthAdjust="spacing" textLength="113" x="533.5" y="336.5293">~SoftwareTimer</text><rect fill="#FFFFFF" height="12" style="stroke:#000000;stroke-width:1.5;" width="12" x="581.5" y="352.4688"/><text fill="#000000" font-family="Verdana" font-size="14" lengthAdjust="spacing" textLength="164" x="479" y="545.5439">TimeoutKapcsolodik_2:</text><text fill="#000000" font-family="Verdana" font-size="14" lengthAdjust="spacing" textLength="102" x="512.5" y="562.5586">SoftwareTimer</text><rect fill="#FFFFFF" height="12" style="stroke:#000000;stroke-width:1.5;" width="12" x="555" y="518.4688"/><text fill="#000000" font-family="Verdana" font-size="14" lengthAdjust="spacing" textLength="147" x="833" y="319.5146">TimeoutZarva_0_req</text><text fill="#000000" font-family="Verdana" font-size="14" lengthAdjust="spacing" textLength="113" x="852.5" y="336.5293">~SoftwareTimer</text><rect fill="#FFFFFF" height="12" style="stroke:#000000;stroke-width:1.5;" width="12" x="900.5" y="352.4688"/><text fill="#000000" font-family="Verdana" font-size="14" lengthAdjust="spacing" textLength="121" x="807" y="545.5439">TimeoutZarva_0:</text><text fill="#000000" font-family="Verdana" font-size="14" lengthAdjust="spacing" textLength="102" x="819" y="562.5586">SoftwareTimer</text><rect fill="#FFFFFF" height="12" style="stroke:#000000;stroke-width:1.5;" width="12" x="861.5" y="518.4688"/><text fill="#000000" font-family="Verdana" font-size="14" lengthAdjust="spacing" textLength="267" x="1118" y="319.5146">TimeoutKeepAliveSendTimeout_1_req</text><text fill="#000000" font-family="Verdana" font-size="14" lengthAdjust="spacing" textLength="113" x="1197.5" y="336.5293">~SoftwareTimer</text><rect fill="#FFFFFF" height="12" style="stroke:#000000;stroke-width:1.5;" width="12" x="1245.5" y="352.4688"/><text fill="#000000" font-family="Verdana" font-size="14" lengthAdjust="spacing" textLength="241" x="1121" y="545.5439">TimeoutKeepAliveSendTimeout_1:</text><text fill="#000000" font-family="Verdana" font-size="14" lengthAdjust="spacing" textLength="102" x="1193" y="562.5586">SoftwareTimer</text><rect fill="#FFFFFF" height="12" style="stroke:#000000;stroke-width:1.5;" width="12" x="1235.5" y="518.4688"/><text fill="#000000" font-family="Verdana" font-size="14" lengthAdjust="spacing" textLength="283" x="1467" y="319.5146">TimeoutKeepAliveReceiveTimeout_4_req</text><text fill="#000000" font-family="Verdana" font-size="14" lengthAdjust="spacing" textLength="113" x="1554.5" y="336.5293">~SoftwareTimer</text><rect fill="#FFFFFF" height="12" style="stroke:#000000;stroke-width:1.5;" width="12" x="1602.5" y="352.4688"/><text fill="#000000" font-family="Verdana" font-size="14" lengthAdjust="spacing" textLength="257" x="1485" y="545.5439">TimeoutKeepAliveReceiveTimeout_4:</text><text fill="#000000" font-family="Verdana" font-size="14" lengthAdjust="spacing" textLength="102" x="1565" y="562.5586">SoftwareTimer</text><rect fill="#FFFFFF" height="12" style="stroke:#000000;stroke-width:1.5;" width="12" x="1607.5" y="518.4688"/><text fill="#000000" font-family="Verdana" font-size="14" lengthAdjust="spacing" textLength="190" x="1888.5" y="319.5146">TimeoutKapcsolodik_3_req</text><text fill="#000000" font-family="Verdana" font-size="14" lengthAdjust="spacing" textLength="113" x="1929.5" y="336.5293">~SoftwareTimer</text><rect fill="#FFFFFF" height="12" style="stroke:#000000;stroke-width:1.5;" width="12" x="1977.5" y="352.4688"/><text fill="#000000" font-family="Verdana" font-size="14" lengthAdjust="spacing" textLength="164" x="1920" y="545.5439">TimeoutKapcsolodik_3:</text><text fill="#000000" font-family="Verdana" font-size="14" lengthAdjust="spacing" textLength="102" x="1953.5" y="562.5586">SoftwareTimer</text><rect fill="#FFFFFF" height="12" style="stroke:#000000;stroke-width:1.5;" width="12" x="1996" y="518.4688"/><text fill="#000000" font-family="Verdana" font-size="14" lengthAdjust="spacing" textLength="267" x="2208" y="319.5146">TimeoutKeepAliveSendTimeout_0_req</text><text fill="#000000" font-family="Verdana" font-size="14" lengthAdjust="spacing" textLength="113" x="2287.5" y="336.5293">~SoftwareTimer</text><rect fill="#FFFFFF" height="12" style="stroke:#000000;stroke-width:1.5;" width="12" x="2335.5" y="352.4688"/><text fill="#000000" font-family="Verdana" font-size="14" lengthAdjust="spacing" textLength="241" x="2224" y="545.5439">TimeoutKeepAliveSendTimeout_0:</text><text fill="#000000" font-family="Verdana" font-size="14" lengthAdjust="spacing" textLength="102" x="2296" y="562.5586">SoftwareTimer</text><rect fill="#FFFFFF" height="12" style="stroke:#000000;stroke-width:1.5;" width="12" x="2338.5" y="518.4688"/><!--link orionSystem__SystemStatus to SystemConnStatus--><g id="link_orionSystem__SystemStatus_SystemConnStatus"><path d="M2278.79,200.5988 C2287.06,206.2888 2302.93,216.3888 2318,221.4688 C2419.87,255.8288 2547.3708,259.8192 2576.3108,260.2992 " fill="none" id="orionSystem__SystemStatus-to-SystemConnStatus" style="stroke:#000000;stroke-width:1.0;stroke-dasharray:7.0,7.0;"/><polygon fill="#000000" points="2582.31,260.3988,2573.3776,256.25,2577.3107,260.3158,2573.2449,264.2489,2582.31,260.3988" style="stroke:#000000;stroke-width:1.0;"/></g><!--link DelayKeepAliveReceiveTimeout_3__TimoeutKeepAliveReceiveTimeout_3 to orionSystem__TimoeutKeepAliveReceiveTimeout_3--><g id="link_DelayKeepAliveReceiveTimeout_3__TimoeutKeepAliveReceiveTimeout_3_orionSystem__TimoeutKeepAliveReceiveTimeout_3"><path d="M230.65,522.7988 C203.25,519.7888 95.4,506.6988 71,484.4688 C27.67,445.0087 29,418.0788 29,359.4688 C29,194.4688 29,194.4688 29,194.4688 C29,139.1488 66.49,130.1288 116,105.4688 C171.13,78.0088 369.1552,68.5676 407.6952,66.9676 " fill="none" id="DelayKeepAliveReceiveTimeout_3__TimoeutKeepAliveReceiveTimeout_3-to-orionSystem__TimoeutKeepAliveReceiveTimeout_3" style="stroke:#000000;stroke-width:1.0;"/><polygon fill="#000000" points="413.69,66.7188,404.5318,63.0955,408.6943,66.9261,404.8637,71.0886,413.69,66.7188" style="stroke:#000000;stroke-width:1.0;"/></g><!--link DelayKapcsolodik_2__TimeoutKapcsolodik_2 to orionSystem__TimeoutKapcsolodik_2--><g id="link_DelayKapcsolodik_2__TimeoutKapcsolodik_2_orionSystem__TimeoutKapcsolodik_2"><path d="M555.02,523.1488 C536.14,521.8188 477.1,515.2788 443,484.4688 C388.08,434.8588 430.38,381.5688 375,332.4688 C315.46,279.6888 269.16,325.1287 204,279.4688 C138.49,233.5688 103.08,163.6288 158,105.4688 C187.34,74.3988 499.49,87.8188 542,83.4688 C584.16,79.1488 628.6329,71.5303 645.3729,68.5503 " fill="none" id="DelayKapcsolodik_2__TimeoutKapcsolodik_2-to-orionSystem__TimeoutKapcsolodik_2" style="stroke:#000000;stroke-width:1.0;"/><polygon fill="#000000" points="651.28,67.4987,641.7183,65.138,646.3574,68.3751,643.1203,73.0142,651.28,67.4987" style="stroke:#000000;stroke-width:1.0;"/></g><!--link DelayZarva_0__TimeoutZarva_0 to orionSystem__TimeoutZarva_0--><g id="link_DelayZarva_0__TimeoutZarva_0_orionSystem__TimeoutZarva_0"><path d="M861.55,522.7488 C843.85,520.4488 793.94,511.7587 765,484.4688 C711.16,433.6988 754.33,379.2788 697,332.4688 C521.35,189.0487 340.84,398.3988 199,221.4688 C166.75,181.2387 163.29,142.6488 199,105.4688 C219.99,83.6187 713.89,86.8988 744,83.4688 C775.6,79.8687 806.9205,72.8974 821.6605,69.4174 " fill="none" id="DelayZarva_0__TimeoutZarva_0-to-orionSystem__TimeoutZarva_0" style="stroke:#000000;stroke-width:1.0;"/><polygon fill="#000000" points="827.5,68.0388,817.8217,66.2138,822.6338,69.1876,819.6599,73.9997,827.5,68.0388" style="stroke:#000000;stroke-width:1.0;"/></g><!--link DelayKeepAliveSendTimeout_1__TimeoutKeepAliveSendTimeout_1 to orionSystem__TimeoutKeepAliveSendTimeout_1--><g id="link_DelayKeepAliveSendTimeout_1__TimeoutKeepAliveSendTimeout_1_orionSystem__TimeoutKeepAliveSendTimeout_1"><path d="M1235.52,523.7288 C1212.42,524.2888 1133.12,523.1788 1087,484.4688 C1030.32,436.8887 1078.04,377.0988 1019,332.4688 C799.73,166.7288 679.15,281.9688 407,243.4688 C371.46,238.4388 270.59,248.5188 247,221.4688 C234.15,206.7288 234.13,192.1888 247,177.4688 C261.36,161.0388 980.1504,76.8339 1056.5404,67.9239 " fill="none" id="DelayKeepAliveSendTimeout_1__TimeoutKeepAliveSendTimeout_1-to-orionSystem__TimeoutKeepAliveSendTimeout_1" style="stroke:#000000;stroke-width:1.0;"/><polygon fill="#000000" points="1062.5,67.2287,1053.0972,64.2984,1057.5337,67.808,1054.024,72.2445,1062.5,67.2287" style="stroke:#000000;stroke-width:1.0;"/></g><!--link DelayKeepAliveReceiveTimeout_4__TimeoutKeepAliveReceiveTimeout_4 to orionSystem__TimeoutKeepAliveReceiveTimeout_4--><g id="link_DelayKeepAliveReceiveTimeout_4__TimeoutKeepAliveReceiveTimeout_4_orionSystem__TimeoutKeepAliveReceiveTimeout_4"><path d="M1619.34,522.8288 C1636.73,520.5088 1692.7,511.2587 1729,484.4688 C1796.1,434.9588 1769.26,378.1888 1839,332.4688 C2031.18,206.4588 2200,400.5588 2344,221.4688 C2356.25,206.2288 2355.56,193.2387 2344,177.4688 C2299.29,116.4887 2043.7983,74.5335 2003.2183,68.2035 " fill="none" id="DelayKeepAliveReceiveTimeout_4__TimeoutKeepAliveReceiveTimeout_4-to-orionSystem__TimeoutKeepAliveReceiveTimeout_4" style="stroke:#000000;stroke-width:1.0;"/><polygon fill="#000000" points="1997.29,67.2788,2005.566,72.6181,2002.2303,68.0494,2006.799,64.7137,1997.29,67.2788" style="stroke:#000000;stroke-width:1.0;"/></g><!--link DelayKapcsolodik_3__TimeoutKapcsolodik_3 to orionSystem__TimeoutKapcsolodik_3--><g id="link_DelayKapcsolodik_3__TimeoutKapcsolodik_3_orionSystem__TimeoutKapcsolodik_3"><path d="M2007.65,522.4588 C2023.17,519.4088 2066.99,508.9988 2093,484.4688 C2147.95,432.6488 2113.22,383.3887 2169,332.4688 C2269.09,241.0988 2376.58,333.3887 2453,221.4688 C2482.07,178.8888 2486.93,144.2888 2453,105.4688 C2428.95,77.9488 2325.8,90.8388 2290,83.4688 C2269.54,79.2588 2251.5623,73.7645 2240.7023,70.2745 " fill="none" id="DelayKapcsolodik_3__TimeoutKapcsolodik_3-to-orionSystem__TimeoutKapcsolodik_3" style="stroke:#000000;stroke-width:1.0;"/><polygon fill="#000000" points="2234.99,68.4388,2242.3346,75.0005,2239.7502,69.9685,2244.7822,67.3841,2234.99,68.4388" style="stroke:#000000;stroke-width:1.0;"/></g><!--link DelayKeepAliveSendTimeout_0__TimeoutKeepAliveSendTimeout_0 to orionSystem__TimeoutKeepAliveSendTimeout_0--><g id="link_DelayKeepAliveSendTimeout_0__TimeoutKeepAliveSendTimeout_0_orionSystem__TimeoutKeepAliveSendTimeout_0"><path d="M2350.35,523.3488 C2368.18,522.6388 2426.01,517.7688 2453,484.4688 C2483.51,446.8188 2464.66,424.8188 2468,376.4688 C2469.35,356.9588 2476.71,349.9788 2468,332.4688 C2450.63,297.5288 2423.28,309.1888 2398,279.4688 C2364.77,240.3988 2384.45,209.0188 2344,177.4688 C2157.09,31.6788 2054.34,111.8488 1819,83.4688 C1776.16,78.2987 1730.641,71.0093 1714.231,68.3193 " fill="none" id="DelayKeepAliveSendTimeout_0__TimeoutKeepAliveSendTimeout_0-to-orionSystem__TimeoutKeepAliveSendTimeout_0" style="stroke:#000000;stroke-width:1.0;"/><polygon fill="#000000" points="1708.31,67.3488,1716.5444,72.752,1713.2441,68.1576,1717.8385,64.8573,1708.31,67.3488" style="stroke:#000000;stroke-width:1.0;"/></g><!--link orionSystem__TimoeutKeepAliveReceiveTimeout_3_req to DelayKeepAliveReceiveTimeout_3__TimoeutKeepAliveReceiveTimeout_3_req--><g id="link_orionSystem__TimoeutKeepAliveReceiveTimeout_3_req_DelayKeepAliveReceiveTimeout_3__TimoeutKeepAliveReceiveTimeout_3_req"><path d="M434.11,201.4588 C405.67,225.5587 287.4876,325.7099 260.0376,348.9699 " fill="none" id="orionSystem__TimoeutKeepAliveReceiveTimeout_3_req-to-DelayKeepAliveReceiveTimeout_3__TimoeutKeepAliveReceiveTimeout_3_req" style="stroke:#000000;stroke-width:1.0;"/><polygon fill="#000000" points="255.46,352.8488,264.9123,350.0822,259.2747,349.6164,259.7405,343.9787,255.46,352.8488" style="stroke:#000000;stroke-width:1.0;"/></g><!--link orionSystem__TimeoutKapcsolodik_2_req to DelayKapcsolodik_2__TimeoutKapcsolodik_2_req--><g id="link_orionSystem__TimeoutKapcsolodik_2_req_DelayKapcsolodik_2__TimeoutKapcsolodik_2_req"><path d="M705.25,201.4588 C687.22,225.4588 613.2445,323.8721 595.3145,347.7321 " fill="none" id="orionSystem__TimeoutKapcsolodik_2_req-to-DelayKapcsolodik_2__TimeoutKapcsolodik_2_req" style="stroke:#000000;stroke-width:1.0;"/><polygon fill="#000000" points="591.71,352.5288,600.3145,347.7368,594.7138,348.5316,593.919,342.9308,591.71,352.5288" style="stroke:#000000;stroke-width:1.0;"/></g><!--link orionSystem__TimeoutZarva_0_req to DelayZarva_0__TimeoutZarva_0_req--><g id="link_orionSystem__TimeoutZarva_0_req_DelayZarva_0__TimeoutZarva_0_req"><path d="M916.69,201.4588 C915.2,225.4588 909.1615,322.6803 907.6815,346.5403 " fill="none" id="orionSystem__TimeoutZarva_0_req-to-DelayZarva_0__TimeoutZarva_0_req" style="stroke:#000000;stroke-width:1.0;"/><polygon fill="#000000" points="907.31,352.5288,911.8595,343.7937,907.6195,347.5383,903.8749,343.2984,907.31,352.5288" style="stroke:#000000;stroke-width:1.0;"/></g><!--link orionSystem__TimeoutKeepAliveSendTimeout_1_req to DelayKeepAliveSendTimeout_1__TimeoutKeepAliveSendTimeout_1_req--><g id="link_orionSystem__TimeoutKeepAliveSendTimeout_1_req_DelayKeepAliveSendTimeout_1__TimeoutKeepAliveSendTimeout_1_req"><path d="M1185.14,201.4588 C1195.42,225.4588 1237.2976,323.1534 1247.5176,347.0134 " fill="none" id="orionSystem__TimeoutKeepAliveSendTimeout_1_req-to-DelayKeepAliveSendTimeout_1__TimeoutKeepAliveSendTimeout_1_req" style="stroke:#000000;stroke-width:1.0;"/><polygon fill="#000000" points="1249.88,352.5288,1250.0133,342.6808,1247.9113,347.9326,1242.6595,345.8307,1249.88,352.5288" style="stroke:#000000;stroke-width:1.0;"/></g><!--link orionSystem__TimeoutKeepAliveReceiveTimeout_4_req to DelayKeepAliveReceiveTimeout_4__TimeoutKeepAliveReceiveTimeout_4_req--><g id="link_orionSystem__TimeoutKeepAliveReceiveTimeout_4_req_DelayKeepAliveReceiveTimeout_4__TimeoutKeepAliveReceiveTimeout_4_req"><path d="M1507.26,201.4588 C1522.9,225.4588 1586.9425,323.643 1602.5025,347.503 " fill="none" id="orionSystem__TimeoutKeepAliveReceiveTimeout_4_req-to-DelayKeepAliveReceiveTimeout_4__TimeoutKeepAliveReceiveTimeout_4_req" style="stroke:#000000;stroke-width:1.0;"/><polygon fill="#000000" points="1605.78,352.5288,1604.2143,342.8051,1603.0488,348.3406,1597.5133,347.1751,1605.78,352.5288" style="stroke:#000000;stroke-width:1.0;"/></g><!--link orionSystem__TimeoutKapcsolodik_3_req to DelayKapcsolodik_3__TimeoutKapcsolodik_3_req--><g id="link_orionSystem__TimeoutKapcsolodik_3_req_DelayKapcsolodik_3__TimeoutKapcsolodik_3_req"><path d="M1778.64,200.7788 C1808.4,223.4788 1942.0803,325.4787 1973.0703,349.1287 " fill="none" id="orionSystem__TimeoutKapcsolodik_3_req-to-DelayKapcsolodik_3__TimeoutKapcsolodik_3_req" style="stroke:#000000;stroke-width:1.0;"/><polygon fill="#000000" points="1977.84,352.7688,1973.1121,344.1289,1973.8652,349.7354,1968.2587,350.4885,1977.84,352.7688" style="stroke:#000000;stroke-width:1.0;"/></g><!--link orionSystem__TimeoutKeepAliveSendTimeout_0_req to DelayKeepAliveSendTimeout_0__TimeoutKeepAliveSendTimeout_0_req--><g id="link_orionSystem__TimeoutKeepAliveSendTimeout_0_req_DelayKeepAliveSendTimeout_0__TimeoutKeepAliveSendTimeout_0_req"><path d="M2061.46,199.5388 C2097.14,219.6288 2291.6216,329.1053 2330.2916,350.8753 " fill="none" id="orionSystem__TimeoutKeepAliveSendTimeout_0_req-to-DelayKeepAliveSendTimeout_0__TimeoutKeepAliveSendTimeout_0_req" style="stroke:#000000;stroke-width:1.0;"/><polygon fill="#000000" points="2335.52,353.8188,2329.6397,345.918,2331.163,351.3659,2325.7151,352.8892,2335.52,353.8188" style="stroke:#000000;stroke-width:1.0;"/></g><!--SRC=[jLZVRzCm47wk_mhJFGmcAEbIU9YwI6Y0a2Q1HFQ49bKckRRHKZiaxg2WyhTZT_sHdyuvBNlOfelztVcxotSNZpEvYi4ZCf8nq3-4qe-2Ip_w3NHuITPa_7gxW6GF4KzOoXOqcxDG_8puZ4vPd04vFpoA8mvobG0LgPmByapEOG4qYLd4oNaCKqcbe6aqcqiQHYa4CXASI95eytSXfLZax0TOBaB88A5ldPmnPVn16zsyCOGfMyRo3dx9Tt4qumlWaWRg5wIvLJTYaGYkhBwoWz0H7uwTX_i4B8GqJydXMSB2K9CmpDc20x1YZUgJC3wBWP3z4zh_aghJJJxmnoWLcm3xut4cHJ1dcOm2oh8L3-RgaLXcdgToqYEztEvnfYAv6bvwGiFugqp2ukgUxyqRT5_3FJthAq2QMqirOYzH2OeuxTz52m5BUGkGABuUuIi4eFueCuYbdBWAcVxrnLJ-PEd6cj8ou6JI1bBqfsstB0ao4OimUfXSOdrKDbPnlx7qaKqS6yJjbfeOTyVnWOUximojWgr5C7Wg4JVgvAmCOcRVxSg-YsJCEPgnNMxK_-q5EqdXX_POS6XViXgcvBPIVdXNjLjhuBUrQ0USsrGNSMqDMeRUY65oMAx3ZZxhO5eoutRFZ6j3etC26YjvUzhaIoQNcSQ-4Pm_DKHjWofwVWFfhKbzjtWFCLirbZkzvw_KpxwDEDx5u89UqSyYNR3uUIo2wpS3vsKMi1YkdS7mnJtV1DA2EXxxXxwsMUjvgljWcu-cfY8U2B_OrnijAlKvFZO8dIn3hl9wSLn-2aZjEQbLArCU2ciDUcTKKnF7xGxCN6ubyYWMTnWu_dAYR61kjwfMoXkQWu6d1hYMEgiLTmHLetP1A48YAw-nsM2aeBW9qy1m3HEZ03Q-aJafDx__ejCZsypKjUGEEZt2DdlqYD51fqUO0Hghq-x9TDhjeDEkXKwxfkd7E5iXTTfj-cYmrYBdz5ha7AD5JXSjSb1J86xgjDKYf_NpQgtl64eJg9uxpLDeUPq6QPnCwI0SU3LRpYkt8TK0-lHiS5QSZFlv6LWx9hrZnp6gYyoplTd03YWDw3M3ZAcL6r3spRvxKpB5sD35ZjLMZCkg7cFL1acwQoAjxUsn9SqflIIOJvMjZzDyzQ0k9meUiVDzo-r47jCu-ThTGTIIOpy7Mbz2O9A27d5Gzn9DIJ4sSxkRY5OoKOriJGZv1m00]--></g></svg>