<?xml version="1.0" encoding="us-ascii" standalone="no"?><svg xmlns="http://www.w3.org/2000/svg" xmlns:xlink="http://www.w3.org/1999/xlink" contentStyleType="text/css" height="1141px" preserveAspectRatio="none" style="width:2291px;height:1141px;background:#FFFFFF;" version="1.1" viewBox="0 0 2291 1141" width="2291px" zoomAndPan="magnify"><defs/><g><!--cluster Orion_Adapter--><g id="cluster_Orion_Adapter"><rect fill="#FFFFFF" height="1123" rx="2.5" ry="2.5" style="stroke:#000000;stroke-width:1.0;" width="2023" x="119.5" y="12"/><rect fill="#FFFFFF" height="10" style="stroke:#000000;stroke-width:1.0;" width="15" x="2122.5" y="17"/><rect fill="#FFFFFF" height="2" style="stroke:#000000;stroke-width:1.0;" width="4" x="2120.5" y="19"/><rect fill="#FFFFFF" height="2" style="stroke:#000000;stroke-width:1.0;" width="4" x="2120.5" y="23"/><text fill="#000000" font-family="Verdana" font-size="14" font-style="italic" lengthAdjust="spacing" textLength="179" x="1041.5" y="44.0752">&#171;Asynchronous Adapter&#187;</text><text fill="#000000" font-family="Verdana" font-size="14" font-weight="bold" lengthAdjust="spacing" textLength="115" x="1073.5" y="71.0898">Orion_Adapter</text></g><!--cluster comp--><g id="cluster_comp"><rect fill="#FFFFFF" height="690" rx="2.5" ry="2.5" style="stroke:#000000;stroke-width:1.0;" width="560" x="1241.5" y="120"/><rect fill="#FFFFFF" height="10" style="stroke:#000000;stroke-width:1.0;" width="15" x="1781.5" y="125"/><rect fill="#FFFFFF" height="2" style="stroke:#000000;stroke-width:1.0;" width="4" x="1779.5" y="127"/><rect fill="#FFFFFF" height="2" style="stroke:#000000;stroke-width:1.0;" width="4" x="1779.5" y="131"/><text fill="#000000" font-family="Verdana" font-size="14" font-weight="bold" lengthAdjust="spacing" textLength="212" x="1415.5" y="152.0752">master : OrionStochSystem</text></g><text fill="#000000" font-family="Verdana" font-size="14" lengthAdjust="spacing" textLength="251" x="11" y="779.0752">TimoeutKeepAliveReceiveTimeout_3</text><rect fill="#FFFFFF" height="12" style="stroke:#000000;stroke-width:1.5;" width="12" x="130.5" y="748"/><text fill="#000000" font-family="Verdana" font-size="14" lengthAdjust="spacing" textLength="158" x="46.5" y="681.0752">TimeoutKapcsolodik_2</text><rect fill="#FFFFFF" height="12" style="stroke:#000000;stroke-width:1.5;" width="12" x="119.5" y="650"/><text fill="#000000" font-family="Verdana" font-size="14" lengthAdjust="spacing" textLength="115" x="62" y="529.0605">TimeoutZarva_0</text><rect fill="#FFFFFF" height="12" style="stroke:#000000;stroke-width:1.5;" width="12" x="113.5" y="549"/><text fill="#000000" font-family="Verdana" font-size="14" lengthAdjust="spacing" textLength="235" x="17" y="428.0605">TimeoutKeepAliveSendTimeout_1</text><rect fill="#FFFFFF" height="12" style="stroke:#000000;stroke-width:1.5;" width="12" x="128.5" y="448"/><text fill="#000000" font-family="Verdana" font-size="14" lengthAdjust="spacing" textLength="251" x="11" y="327.0605">TimeoutKeepAliveReceiveTimeout_4</text><rect fill="#FFFFFF" height="12" style="stroke:#000000;stroke-width:1.5;" width="12" x="130.5" y="347"/><text fill="#000000" font-family="Verdana" font-size="14" lengthAdjust="spacing" textLength="158" x="46.5" y="226.0605">TimeoutKapcsolodik_3</text><rect fill="#FFFFFF" height="12" style="stroke:#000000;stroke-width:1.5;" width="12" x="119.5" y="246"/><text fill="#000000" font-family="Verdana" font-size="14" lengthAdjust="spacing" textLength="235" x="17" y="125.0605">TimeoutKeepAliveSendTimeout_0</text><rect fill="#FFFFFF" height="12" style="stroke:#000000;stroke-width:1.5;" width="12" x="128.5" y="145"/><text fill="#000000" font-family="Verdana" font-size="14" lengthAdjust="spacing" textLength="283" x="2001" y="817.0752">TimoeutKeepAliveReceiveTimeout_3_req</text><rect fill="#FFFFFF" height="12" style="stroke:#000000;stroke-width:1.5;" width="12" x="2136.5" y="786"/><text fill="#000000" font-family="Verdana" font-size="14" lengthAdjust="spacing" textLength="190" x="2036.5" y="721.0752">TimeoutKapcsolodik_2_req</text><rect fill="#FFFFFF" height="12" style="stroke:#000000;stroke-width:1.5;" width="12" x="2125.5" y="690"/><text fill="#000000" font-family="Verdana" font-size="14" lengthAdjust="spacing" textLength="147" x="2052" y="625.0752">TimeoutZarva_0_req</text><rect fill="#FFFFFF" height="12" style="stroke:#000000;stroke-width:1.5;" width="12" x="2119.5" y="594"/><text fill="#000000" font-family="Verdana" font-size="14" lengthAdjust="spacing" textLength="267" x="2007" y="478.0605">TimeoutKeepAliveSendTimeout_1_req</text><rect fill="#FFFFFF" height="12" style="stroke:#000000;stroke-width:1.5;" width="12" x="2134.5" y="498"/><text fill="#000000" font-family="Verdana" font-size="14" lengthAdjust="spacing" textLength="283" x="2001" y="382.0605">TimeoutKeepAliveReceiveTimeout_4_req</text><rect fill="#FFFFFF" height="12" style="stroke:#000000;stroke-width:1.5;" width="12" x="2136.5" y="402"/><text fill="#000000" font-family="Verdana" font-size="14" lengthAdjust="spacing" textLength="190" x="2036.5" y="286.0605">TimeoutKapcsolodik_3_req</text><rect fill="#FFFFFF" height="12" style="stroke:#000000;stroke-width:1.5;" width="12" x="2125.5" y="306"/><text fill="#000000" font-family="Verdana" font-size="14" lengthAdjust="spacing" textLength="267" x="2007" y="190.0605">TimeoutKeepAliveSendTimeout_0_req</text><rect fill="#FFFFFF" height="12" style="stroke:#000000;stroke-width:1.5;" width="12" x="2134.5" y="210"/><text fill="#000000" font-family="Verdana" font-size="14" lengthAdjust="spacing" textLength="100" x="2070" y="94.0605">SystemStatus</text><rect fill="#FFFFFF" height="12" style="stroke:#000000;stroke-width:1.5;" width="12" x="2114" y="114"/><!--entity queueOfTimoeutKeepAliveReceiveTimeout_3--><g id="elem_queueOfTimoeutKeepAliveReceiveTimeout_3"><path d="M507,721.48 L837,721.48 C842,721.48 842,757.002 842,757.002 C842,757.002 842,792.5239 837,792.5239 L507,792.5239 C502,792.5239 502,757.002 502,757.002 C502,757.002 502,721.48 507,721.48 " fill="#FFFFFF" style="stroke:#000000;stroke-width:1.0;"/><path d="M837,721.48 C832,721.48 832,757.002 832,757.002 C832,792.5239 837,792.5239 837,792.5239 " fill="none" style="stroke:#000000;stroke-width:1.0;"/><text fill="#000000" font-family="Verdana" font-size="14" lengthAdjust="spacing" textLength="310" x="512" y="745.5552">queueOfTimoeutKeepAliveReceiveTimeout_3</text><text fill="#000000" font-family="Verdana" font-size="14" lengthAdjust="spacing" textLength="81" x="512" y="762.5698">capacity=1,</text><text fill="#000000" font-family="Verdana" font-size="14" lengthAdjust="spacing" textLength="70" x="512" y="779.5845">priority=1</text></g><!--entity queueOfTimeoutKapcsolodik_2--><g id="elem_queueOfTimeoutKapcsolodik_2"><path d="M553.5,620.48 L790.5,620.48 C795.5,620.48 795.5,656.002 795.5,656.002 C795.5,656.002 795.5,691.5239 790.5,691.5239 L553.5,691.5239 C548.5,691.5239 548.5,656.002 548.5,656.002 C548.5,656.002 548.5,620.48 553.5,620.48 " fill="#FFFFFF" style="stroke:#000000;stroke-width:1.0;"/><path d="M790.5,620.48 C785.5,620.48 785.5,656.002 785.5,656.002 C785.5,691.5239 790.5,691.5239 790.5,691.5239 " fill="none" style="stroke:#000000;stroke-width:1.0;"/><text fill="#000000" font-family="Verdana" font-size="14" lengthAdjust="spacing" textLength="217" x="558.5" y="644.5552">queueOfTimeoutKapcsolodik_2</text><text fill="#000000" font-family="Verdana" font-size="14" lengthAdjust="spacing" textLength="81" x="558.5" y="661.5698">capacity=1,</text><text fill="#000000" font-family="Verdana" font-size="14" lengthAdjust="spacing" textLength="70" x="558.5" y="678.5845">priority=1</text></g><!--entity queueOfTimeoutZarva_0--><g id="elem_queueOfTimeoutZarva_0"><path d="M575,519.48 L769,519.48 C774,519.48 774,555.002 774,555.002 C774,555.002 774,590.5239 769,590.5239 L575,590.5239 C570,590.5239 570,555.002 570,555.002 C570,555.002 570,519.48 575,519.48 " fill="#FFFFFF" style="stroke:#000000;stroke-width:1.0;"/><path d="M769,519.48 C764,519.48 764,555.002 764,555.002 C764,590.5239 769,590.5239 769,590.5239 " fill="none" style="stroke:#000000;stroke-width:1.0;"/><text fill="#000000" font-family="Verdana" font-size="14" lengthAdjust="spacing" textLength="174" x="580" y="543.5552">queueOfTimeoutZarva_0</text><text fill="#000000" font-family="Verdana" font-size="14" lengthAdjust="spacing" textLength="81" x="580" y="560.5698">capacity=1,</text><text fill="#000000" font-family="Verdana" font-size="14" lengthAdjust="spacing" textLength="70" x="580" y="577.5845">priority=1</text></g><!--entity queueOfTimeoutKeepAliveSendTimeout_1--><g id="elem_queueOfTimeoutKeepAliveSendTimeout_1"><path d="M515,418.48 L829,418.48 C834,418.48 834,454.002 834,454.002 C834,454.002 834,489.5239 829,489.5239 L515,489.5239 C510,489.5239 510,454.002 510,454.002 C510,454.002 510,418.48 515,418.48 " fill="#FFFFFF" style="stroke:#000000;stroke-width:1.0;"/><path d="M829,418.48 C824,418.48 824,454.002 824,454.002 C824,489.5239 829,489.5239 829,489.5239 " fill="none" style="stroke:#000000;stroke-width:1.0;"/><text fill="#000000" font-family="Verdana" font-size="14" lengthAdjust="spacing" textLength="294" x="520" y="442.5552">queueOfTimeoutKeepAliveSendTimeout_1</text><text fill="#000000" font-family="Verdana" font-size="14" lengthAdjust="spacing" textLength="81" x="520" y="459.5698">capacity=1,</text><text fill="#000000" font-family="Verdana" font-size="14" lengthAdjust="spacing" textLength="70" x="520" y="476.5845">priority=1</text></g><!--entity queueOfTimeoutKeepAliveReceiveTimeout_4--><g id="elem_queueOfTimeoutKeepAliveReceiveTimeout_4"><path d="M507,317.48 L837,317.48 C842,317.48 842,353.002 842,353.002 C842,353.002 842,388.5239 837,388.5239 L507,388.5239 C502,388.5239 502,353.002 502,353.002 C502,353.002 502,317.48 507,317.48 " fill="#FFFFFF" style="stroke:#000000;stroke-width:1.0;"/><path d="M837,317.48 C832,317.48 832,353.002 832,353.002 C832,388.5239 837,388.5239 837,388.5239 " fill="none" style="stroke:#000000;stroke-width:1.0;"/><text fill="#000000" font-family="Verdana" font-size="14" lengthAdjust="spacing" textLength="310" x="512" y="341.5552">queueOfTimeoutKeepAliveReceiveTimeout_4</text><text fill="#000000" font-family="Verdana" font-size="14" lengthAdjust="spacing" textLength="81" x="512" y="358.5698">capacity=1,</text><text fill="#000000" font-family="Verdana" font-size="14" lengthAdjust="spacing" textLength="70" x="512" y="375.5845">priority=1</text></g><!--entity queueOfTimeoutKapcsolodik_3--><g id="elem_queueOfTimeoutKapcsolodik_3"><path d="M553.5,216.48 L790.5,216.48 C795.5,216.48 795.5,252.002 795.5,252.002 C795.5,252.002 795.5,287.5239 790.5,287.5239 L553.5,287.5239 C548.5,287.5239 548.5,252.002 548.5,252.002 C548.5,252.002 548.5,216.48 553.5,216.48 " fill="#FFFFFF" style="stroke:#000000;stroke-width:1.0;"/><path d="M790.5,216.48 C785.5,216.48 785.5,252.002 785.5,252.002 C785.5,287.5239 790.5,287.5239 790.5,287.5239 " fill="none" style="stroke:#000000;stroke-width:1.0;"/><text fill="#000000" font-family="Verdana" font-size="14" lengthAdjust="spacing" textLength="217" x="558.5" y="240.5552">queueOfTimeoutKapcsolodik_3</text><text fill="#000000" font-family="Verdana" font-size="14" lengthAdjust="spacing" textLength="81" x="558.5" y="257.5698">capacity=1,</text><text fill="#000000" font-family="Verdana" font-size="14" lengthAdjust="spacing" textLength="70" x="558.5" y="274.5845">priority=1</text></g><!--entity queueOfTimeoutKeepAliveSendTimeout_0--><g id="elem_queueOfTimeoutKeepAliveSendTimeout_0"><path d="M515,115.48 L829,115.48 C834,115.48 834,151.002 834,151.002 C834,151.002 834,186.5239 829,186.5239 L515,186.5239 C510,186.5239 510,151.002 510,151.002 C510,151.002 510,115.48 515,115.48 " fill="#FFFFFF" style="stroke:#000000;stroke-width:1.0;"/><path d="M829,115.48 C824,115.48 824,151.002 824,151.002 C824,186.5239 829,186.5239 829,186.5239 " fill="none" style="stroke:#000000;stroke-width:1.0;"/><text fill="#000000" font-family="Verdana" font-size="14" lengthAdjust="spacing" textLength="294" x="520" y="139.5552">queueOfTimeoutKeepAliveSendTimeout_0</text><text fill="#000000" font-family="Verdana" font-size="14" lengthAdjust="spacing" textLength="81" x="520" y="156.5698">capacity=1,</text><text fill="#000000" font-family="Verdana" font-size="14" lengthAdjust="spacing" textLength="70" x="520" y="173.5845">priority=1</text></g><!--entity Triggers--><g id="elem_Triggers"><rect fill="#FFFFFF" height="296.1172" rx="2.5" ry="2.5" style="stroke:#000000;stroke-width:1.0;" width="687" x="328.5" y="822.94"/><text fill="#000000" font-family="Verdana" font-size="14" lengthAdjust="spacing" textLength="58" x="343.5" y="845.0152">Triggers</text><line style="stroke:#000000;stroke-width:1.0;" x1="329.5" x2="1014.5" y1="852.9546" y2="852.9546"/><text fill="#000000" font-family="Verdana" font-size="14" lengthAdjust="spacing" textLength="657" x="343.5" y="876.0298">when TimoeutKeepAliveReceiveTimeout_3.TimoeutKeepAliveReceiveTimeout_3.any / run once</text><line style="stroke:#000000;stroke-width:1.0;stroke-dasharray:1.0,2.0;" x1="329.5" x2="1014.5" y1="887.9693" y2="887.9693"/><text fill="#000000" font-family="Verdana" font-size="14" lengthAdjust="spacing" textLength="471" x="343.5" y="911.0445">when TimeoutKapcsolodik_2.TimeoutKapcsolodik_2.any / run once</text><line style="stroke:#000000;stroke-width:1.0;stroke-dasharray:1.0,2.0;" x1="329.5" x2="1014.5" y1="922.9839" y2="922.9839"/><text fill="#000000" font-family="Verdana" font-size="14" lengthAdjust="spacing" textLength="385" x="343.5" y="946.0591">when TimeoutZarva_0.TimeoutZarva_0.any / run once</text><line style="stroke:#000000;stroke-width:1.0;stroke-dasharray:1.0,2.0;" x1="329.5" x2="1014.5" y1="957.9986" y2="957.9986"/><text fill="#000000" font-family="Verdana" font-size="14" lengthAdjust="spacing" textLength="625" x="343.5" y="981.0738">when TimeoutKeepAliveSendTimeout_1.TimeoutKeepAliveSendTimeout_1.any / run once</text><line style="stroke:#000000;stroke-width:1.0;stroke-dasharray:1.0,2.0;" x1="329.5" x2="1014.5" y1="993.0132" y2="993.0132"/><text fill="#000000" font-family="Verdana" font-size="14" lengthAdjust="spacing" textLength="657" x="343.5" y="1016.0884">when TimeoutKeepAliveReceiveTimeout_4.TimeoutKeepAliveReceiveTimeout_4.any / run once</text><line style="stroke:#000000;stroke-width:1.0;stroke-dasharray:1.0,2.0;" x1="329.5" x2="1014.5" y1="1028.0279" y2="1028.0279"/><text fill="#000000" font-family="Verdana" font-size="14" lengthAdjust="spacing" textLength="471" x="343.5" y="1051.1031">when TimeoutKapcsolodik_3.TimeoutKapcsolodik_3.any / run once</text><line style="stroke:#000000;stroke-width:1.0;stroke-dasharray:1.0,2.0;" x1="329.5" x2="1014.5" y1="1063.0425" y2="1063.0425"/><text fill="#000000" font-family="Verdana" font-size="14" lengthAdjust="spacing" textLength="625" x="343.5" y="1086.1177">when TimeoutKeepAliveSendTimeout_0.TimeoutKeepAliveSendTimeout_0.any / run once</text><line style="stroke:#000000;stroke-width:1.0;stroke-dasharray:1.0,2.0;" x1="329.5" x2="1014.5" y1="1098.0572" y2="1098.0572"/></g><text fill="#000000" font-family="Verdana" font-size="14" lengthAdjust="spacing" textLength="251" x="1133" y="779.0752">TimoeutKeepAliveReceiveTimeout_3</text><rect fill="#FFFFFF" height="12" style="stroke:#000000;stroke-width:1.5;" width="12" x="1252.5" y="748"/><text fill="#000000" font-family="Verdana" font-size="14" lengthAdjust="spacing" textLength="158" x="1168.5" y="681.0752">TimeoutKapcsolodik_2</text><rect fill="#FFFFFF" height="12" style="stroke:#000000;stroke-width:1.5;" width="12" x="1241.5" y="650"/><text fill="#000000" font-family="Verdana" font-size="14" lengthAdjust="spacing" textLength="115" x="1184" y="580.0752">TimeoutZarva_0</text><rect fill="#FFFFFF" height="12" style="stroke:#000000;stroke-width:1.5;" width="12" x="1235.5" y="549"/><text fill="#000000" font-family="Verdana" font-size="14" lengthAdjust="spacing" textLength="235" x="1139" y="428.0605">TimeoutKeepAliveSendTimeout_1</text><rect fill="#FFFFFF" height="12" style="stroke:#000000;stroke-width:1.5;" width="12" x="1250.5" y="448"/><text fill="#000000" font-family="Verdana" font-size="14" lengthAdjust="spacing" textLength="251" x="1133" y="327.0605">TimeoutKeepAliveReceiveTimeout_4</text><rect fill="#FFFFFF" height="12" style="stroke:#000000;stroke-width:1.5;" width="12" x="1252.5" y="347"/><text fill="#000000" font-family="Verdana" font-size="14" lengthAdjust="spacing" textLength="158" x="1168.5" y="226.0605">TimeoutKapcsolodik_3</text><rect fill="#FFFFFF" height="12" style="stroke:#000000;stroke-width:1.5;" width="12" x="1241.5" y="246"/><text fill="#000000" font-family="Verdana" font-size="14" lengthAdjust="spacing" textLength="235" x="1139" y="125.0605">TimeoutKeepAliveSendTimeout_0</text><rect fill="#FFFFFF" height="12" style="stroke:#000000;stroke-width:1.5;" width="12" x="1250.5" y="145"/><text fill="#000000" font-family="Verdana" font-size="14" lengthAdjust="spacing" textLength="283" x="1660" y="817.0752">TimoeutKeepAliveReceiveTimeout_3_req</text><rect fill="#FFFFFF" height="12" style="stroke:#000000;stroke-width:1.5;" width="12" x="1795.5" y="786"/><text fill="#000000" font-family="Verdana" font-size="14" lengthAdjust="spacing" textLength="190" x="1695.5" y="721.0752">TimeoutKapcsolodik_2_req</text><rect fill="#FFFFFF" height="12" style="stroke:#000000;stroke-width:1.5;" width="12" x="1784.5" y="690"/><text fill="#000000" font-family="Verdana" font-size="14" lengthAdjust="spacing" textLength="147" x="1711" y="625.0752">TimeoutZarva_0_req</text><rect fill="#FFFFFF" height="12" style="stroke:#000000;stroke-width:1.5;" width="12" x="1778.5" y="594"/><text fill="#000000" font-family="Verdana" font-size="14" lengthAdjust="spacing" textLength="267" x="1666" y="529.0752">TimeoutKeepAliveSendTimeout_1_req</text><rect fill="#FFFFFF" height="12" style="stroke:#000000;stroke-width:1.5;" width="12" x="1793.5" y="498"/><text fill="#000000" font-family="Verdana" font-size="14" lengthAdjust="spacing" textLength="283" x="1660" y="382.0605">TimeoutKeepAliveReceiveTimeout_4_req</text><rect fill="#FFFFFF" height="12" style="stroke:#000000;stroke-width:1.5;" width="12" x="1795.5" y="402"/><text fill="#000000" font-family="Verdana" font-size="14" lengthAdjust="spacing" textLength="190" x="1695.5" y="286.0605">TimeoutKapcsolodik_3_req</text><rect fill="#FFFFFF" height="12" style="stroke:#000000;stroke-width:1.5;" width="12" x="1784.5" y="306"/><text fill="#000000" font-family="Verdana" font-size="14" lengthAdjust="spacing" textLength="267" x="1666" y="190.0605">TimeoutKeepAliveSendTimeout_0_req</text><rect fill="#FFFFFF" height="12" style="stroke:#000000;stroke-width:1.5;" width="12" x="1793.5" y="210"/><text fill="#000000" font-family="Verdana" font-size="14" lengthAdjust="spacing" textLength="100" x="1729" y="94.0605">SystemStatus</text><rect fill="#FFFFFF" height="12" style="stroke:#000000;stroke-width:1.5;" width="12" x="1773" y="114"/><!--link comp_TimoeutKeepAliveReceiveTimeout_3_req to c_TimoeutKeepAliveReceiveTimeout_3_req--><g id="link_comp_TimoeutKeepAliveReceiveTimeout_3_req_c_TimoeutKeepAliveReceiveTimeout_3_req"><path d="M1807.29,792 C1843.39,792 2090.32,792 2130.6,792 " fill="none" id="comp_TimoeutKeepAliveReceiveTimeout_3_req-to-c_TimoeutKeepAliveReceiveTimeout_3_req" style="stroke:#000000;stroke-width:1.0;stroke-dasharray:7.0,7.0;"/><polygon fill="#000000" points="2136.6,792,2127.6,788,2131.6,792,2127.6,796,2136.6,792" style="stroke:#000000;stroke-width:1.0;"/></g><!--link comp_TimeoutKapcsolodik_2_req to c_TimeoutKapcsolodik_2_req--><g id="link_comp_TimeoutKapcsolodik_2_req_c_TimeoutKapcsolodik_2_req"><path d="M1796.29,696 C1832.39,696 2079.32,696 2119.6,696 " fill="none" id="comp_TimeoutKapcsolodik_2_req-to-c_TimeoutKapcsolodik_2_req" style="stroke:#000000;stroke-width:1.0;stroke-dasharray:7.0,7.0;"/><polygon fill="#000000" points="2125.6,696,2116.6,692,2120.6,696,2116.6,700,2125.6,696" style="stroke:#000000;stroke-width:1.0;"/></g><!--link comp_TimeoutZarva_0_req to c_TimeoutZarva_0_req--><g id="link_comp_TimeoutZarva_0_req_c_TimeoutZarva_0_req"><path d="M1790.29,600 C1826.39,600 2073.32,600 2113.6,600 " fill="none" id="comp_TimeoutZarva_0_req-to-c_TimeoutZarva_0_req" style="stroke:#000000;stroke-width:1.0;stroke-dasharray:7.0,7.0;"/><polygon fill="#000000" points="2119.6,600,2110.6,596,2114.6,600,2110.6,604,2119.6,600" style="stroke:#000000;stroke-width:1.0;"/></g><!--link comp_TimeoutKeepAliveSendTimeout_1_req to c_TimeoutKeepAliveSendTimeout_1_req--><g id="link_comp_TimeoutKeepAliveSendTimeout_1_req_c_TimeoutKeepAliveSendTimeout_1_req"><path d="M1805.29,504 C1841.39,504 2088.32,504 2128.6,504 " fill="none" id="comp_TimeoutKeepAliveSendTimeout_1_req-to-c_TimeoutKeepAliveSendTimeout_1_req" style="stroke:#000000;stroke-width:1.0;stroke-dasharray:7.0,7.0;"/><polygon fill="#000000" points="2134.6,504,2125.6,500,2129.6,504,2125.6,508,2134.6,504" style="stroke:#000000;stroke-width:1.0;"/></g><!--link comp_TimeoutKeepAliveReceiveTimeout_4_req to c_TimeoutKeepAliveReceiveTimeout_4_req--><g id="link_comp_TimeoutKeepAliveReceiveTimeout_4_req_c_TimeoutKeepAliveReceiveTimeout_4_req"><path d="M1807.29,408 C1843.39,408 2090.32,408 2130.6,408 " fill="none" id="comp_TimeoutKeepAliveReceiveTimeout_4_req-to-c_TimeoutKeepAliveReceiveTimeout_4_req" style="stroke:#000000;stroke-width:1.0;stroke-dasharray:7.0,7.0;"/><polygon fill="#000000" points="2136.6,408,2127.6,404,2131.6,408,2127.6,412,2136.6,408" style="stroke:#000000;stroke-width:1.0;"/></g><!--link comp_TimeoutKapcsolodik_3_req to c_TimeoutKapcsolodik_3_req--><g id="link_comp_TimeoutKapcsolodik_3_req_c_TimeoutKapcsolodik_3_req"><path d="M1796.29,312 C1832.39,312 2079.32,312 2119.6,312 " fill="none" id="comp_TimeoutKapcsolodik_3_req-to-c_TimeoutKapcsolodik_3_req" style="stroke:#000000;stroke-width:1.0;stroke-dasharray:7.0,7.0;"/><polygon fill="#000000" points="2125.6,312,2116.6,308,2120.6,312,2116.6,316,2125.6,312" style="stroke:#000000;stroke-width:1.0;"/></g><!--link comp_TimeoutKeepAliveSendTimeout_0_req to c_TimeoutKeepAliveSendTimeout_0_req--><g id="link_comp_TimeoutKeepAliveSendTimeout_0_req_c_TimeoutKeepAliveSendTimeout_0_req"><path d="M1805.29,216 C1841.39,216 2088.32,216 2128.6,216 " fill="none" id="comp_TimeoutKeepAliveSendTimeout_0_req-to-c_TimeoutKeepAliveSendTimeout_0_req" style="stroke:#000000;stroke-width:1.0;stroke-dasharray:7.0,7.0;"/><polygon fill="#000000" points="2134.6,216,2125.6,212,2129.6,216,2125.6,220,2134.6,216" style="stroke:#000000;stroke-width:1.0;"/></g><!--link comp_SystemStatus to c_SystemStatus--><g id="link_comp_SystemStatus_c_SystemStatus"><path d="M1784.79,120 C1822.94,120 2070.89,120 2108.38,120 " fill="none" id="comp_SystemStatus-to-c_SystemStatus" style="stroke:#000000;stroke-width:1.0;stroke-dasharray:7.0,7.0;"/><polygon fill="#000000" points="2114.38,120,2105.38,116,2109.38,120,2105.38,124,2114.38,120" style="stroke:#000000;stroke-width:1.0;"/></g><!--link c_TimoeutKeepAliveReceiveTimeout_3 to queueOfTimoeutKeepAliveReceiveTimeout_3--><g id="link_c_TimoeutKeepAliveReceiveTimeout_3_queueOfTimoeutKeepAliveReceiveTimeout_3"><path d="M142.29,754.02 C172.71,754.2 352.7001,755.206 495.5801,756.016 " fill="none" id="c_TimoeutKeepAliveReceiveTimeout_3-to-queueOfTimoeutKeepAliveReceiveTimeout_3" style="stroke:#000000;stroke-width:1.0;stroke-dasharray:7.0,7.0;"/><polygon fill="#000000" points="501.58,756.05,492.6028,751.999,496.5801,756.0217,492.5575,759.9989,501.58,756.05" style="stroke:#000000;stroke-width:1.0;"/><text fill="#000000" font-family="Verdana" font-size="13" lengthAdjust="spacing" textLength="24" x="266.5" y="747.0698">any</text></g><!--link queueOfTimoeutKeepAliveReceiveTimeout_3 to comp_TimoeutKeepAliveReceiveTimeout_3--><g id="link_queueOfTimoeutKeepAliveReceiveTimeout_3_comp_TimoeutKeepAliveReceiveTimeout_3"><path d="M842.21,756.13 C1000.13,755.32 1210.7501,754.2399 1246.8101,754.0599 " fill="none" id="queueOfTimoeutKeepAliveReceiveTimeout_3-to-comp_TimoeutKeepAliveReceiveTimeout_3" style="stroke:#000000;stroke-width:1.0;stroke-dasharray:7.0,7.0;"/><polygon fill="#000000" points="1252.81,754.03,1243.7901,750.075,1247.8101,754.055,1243.8301,758.0749,1252.81,754.03" style="stroke:#000000;stroke-width:1.0;"/><text fill="#000000" font-family="Verdana" font-size="13" lengthAdjust="spacing" textLength="24" x="1052.5" y="747.0698">any</text></g><!--link c_TimeoutKapcsolodik_2 to queueOfTimeoutKapcsolodik_2--><g id="link_c_TimeoutKapcsolodik_2_queueOfTimeoutKapcsolodik_2"><path d="M131.38,656 C166.15,656 394.03,656 542.26,656 " fill="none" id="c_TimeoutKapcsolodik_2-to-queueOfTimeoutKapcsolodik_2" style="stroke:#000000;stroke-width:1.0;stroke-dasharray:7.0,7.0;"/><polygon fill="#000000" points="548.26,656,539.26,652,543.26,656,539.26,660,548.26,656" style="stroke:#000000;stroke-width:1.0;"/><text fill="#000000" font-family="Verdana" font-size="13" lengthAdjust="spacing" textLength="24" x="266.5" y="648.0698">any</text></g><!--link queueOfTimeoutKapcsolodik_2 to comp_TimeoutKapcsolodik_2--><g id="link_queueOfTimeoutKapcsolodik_2_comp_TimeoutKapcsolodik_2"><path d="M795.79,656 C950.57,656 1195.4,656 1235.51,656 " fill="none" id="queueOfTimeoutKapcsolodik_2-to-comp_TimeoutKapcsolodik_2" style="stroke:#000000;stroke-width:1.0;stroke-dasharray:7.0,7.0;"/><polygon fill="#000000" points="1241.51,656,1232.51,652,1236.51,656,1232.51,660,1241.51,656" style="stroke:#000000;stroke-width:1.0;"/><text fill="#000000" font-family="Verdana" font-size="13" lengthAdjust="spacing" textLength="24" x="1052.5" y="648.0698">any</text></g><!--link c_TimeoutZarva_0 to queueOfTimeoutZarva_0--><g id="link_c_TimeoutZarva_0_queueOfTimeoutZarva_0"><path d="M125.43,555 C162.41,555 416.21,555 563.57,555 " fill="none" id="c_TimeoutZarva_0-to-queueOfTimeoutZarva_0" style="stroke:#000000;stroke-width:1.0;stroke-dasharray:7.0,7.0;"/><polygon fill="#000000" points="569.57,555,560.57,551,564.57,555,560.57,559,569.57,555" style="stroke:#000000;stroke-width:1.0;"/><text fill="#000000" font-family="Verdana" font-size="13" lengthAdjust="spacing" textLength="24" x="266.5" y="547.0698">any</text></g><!--link queueOfTimeoutZarva_0 to comp_TimeoutZarva_0--><g id="link_queueOfTimeoutZarva_0_comp_TimeoutZarva_0"><path d="M774.22,555 C924.76,555 1188.44,555 1229.65,555 " fill="none" id="queueOfTimeoutZarva_0-to-comp_TimeoutZarva_0" style="stroke:#000000;stroke-width:1.0;stroke-dasharray:7.0,7.0;"/><polygon fill="#000000" points="1235.65,555,1226.65,551,1230.65,555,1226.65,559,1235.65,555" style="stroke:#000000;stroke-width:1.0;"/><text fill="#000000" font-family="Verdana" font-size="13" lengthAdjust="spacing" textLength="24" x="1052.5" y="547.0698">any</text></g><!--link c_TimeoutKeepAliveSendTimeout_1 to queueOfTimeoutKeepAliveSendTimeout_1--><g id="link_c_TimeoutKeepAliveSendTimeout_1_queueOfTimeoutKeepAliveSendTimeout_1"><path d="M140.31,454 C171.46,454 359.15,454 503.6,454 " fill="none" id="c_TimeoutKeepAliveSendTimeout_1-to-queueOfTimeoutKeepAliveSendTimeout_1" style="stroke:#000000;stroke-width:1.0;stroke-dasharray:7.0,7.0;"/><polygon fill="#000000" points="509.6,454,500.6,450,504.6,454,500.6,458,509.6,454" style="stroke:#000000;stroke-width:1.0;"/><text fill="#000000" font-family="Verdana" font-size="13" lengthAdjust="spacing" textLength="24" x="266.5" y="446.0698">any</text></g><!--link queueOfTimeoutKeepAliveSendTimeout_1 to comp_TimeoutKeepAliveSendTimeout_1--><g id="link_queueOfTimeoutKeepAliveSendTimeout_1_comp_TimeoutKeepAliveSendTimeout_1"><path d="M834.24,454 C991.96,454 1207.73,454 1244.69,454 " fill="none" id="queueOfTimeoutKeepAliveSendTimeout_1-to-comp_TimeoutKeepAliveSendTimeout_1" style="stroke:#000000;stroke-width:1.0;stroke-dasharray:7.0,7.0;"/><polygon fill="#000000" points="1250.69,454,1241.69,450,1245.69,454,1241.69,458,1250.69,454" style="stroke:#000000;stroke-width:1.0;"/><text fill="#000000" font-family="Verdana" font-size="13" lengthAdjust="spacing" textLength="24" x="1052.5" y="446.0698">any</text></g><!--link c_TimeoutKeepAliveReceiveTimeout_4 to queueOfTimeoutKeepAliveReceiveTimeout_4--><g id="link_c_TimeoutKeepAliveReceiveTimeout_4_queueOfTimeoutKeepAliveReceiveTimeout_4"><path d="M142.29,353 C172.71,353 352.7,353 495.58,353 " fill="none" id="c_TimeoutKeepAliveReceiveTimeout_4-to-queueOfTimeoutKeepAliveReceiveTimeout_4" style="stroke:#000000;stroke-width:1.0;stroke-dasharray:7.0,7.0;"/><polygon fill="#000000" points="501.58,353,492.58,349,496.58,353,492.58,357,501.58,353" style="stroke:#000000;stroke-width:1.0;"/><text fill="#000000" font-family="Verdana" font-size="13" lengthAdjust="spacing" textLength="24" x="266.5" y="345.0698">any</text></g><!--link queueOfTimeoutKeepAliveReceiveTimeout_4 to comp_TimeoutKeepAliveReceiveTimeout_4--><g id="link_queueOfTimeoutKeepAliveReceiveTimeout_4_comp_TimeoutKeepAliveReceiveTimeout_4"><path d="M842.21,353 C1000.13,353 1210.75,353 1246.81,353 " fill="none" id="queueOfTimeoutKeepAliveReceiveTimeout_4-to-comp_TimeoutKeepAliveReceiveTimeout_4" style="stroke:#000000;stroke-width:1.0;stroke-dasharray:7.0,7.0;"/><polygon fill="#000000" points="1252.81,353,1243.81,349,1247.81,353,1243.81,357,1252.81,353" style="stroke:#000000;stroke-width:1.0;"/><text fill="#000000" font-family="Verdana" font-size="13" lengthAdjust="spacing" textLength="24" x="1052.5" y="345.0698">any</text></g><!--link c_TimeoutKapcsolodik_3 to queueOfTimeoutKapcsolodik_3--><g id="link_c_TimeoutKapcsolodik_3_queueOfTimeoutKapcsolodik_3"><path d="M131.38,252 C166.15,252 394.03,252 542.26,252 " fill="none" id="c_TimeoutKapcsolodik_3-to-queueOfTimeoutKapcsolodik_3" style="stroke:#000000;stroke-width:1.0;stroke-dasharray:7.0,7.0;"/><polygon fill="#000000" points="548.26,252,539.26,248,543.26,252,539.26,256,548.26,252" style="stroke:#000000;stroke-width:1.0;"/><text fill="#000000" font-family="Verdana" font-size="13" lengthAdjust="spacing" textLength="24" x="266.5" y="244.0698">any</text></g><!--link queueOfTimeoutKapcsolodik_3 to comp_TimeoutKapcsolodik_3--><g id="link_queueOfTimeoutKapcsolodik_3_comp_TimeoutKapcsolodik_3"><path d="M795.79,252 C950.57,252 1195.4,252 1235.51,252 " fill="none" id="queueOfTimeoutKapcsolodik_3-to-comp_TimeoutKapcsolodik_3" style="stroke:#000000;stroke-width:1.0;stroke-dasharray:7.0,7.0;"/><polygon fill="#000000" points="1241.51,252,1232.51,248,1236.51,252,1232.51,256,1241.51,252" style="stroke:#000000;stroke-width:1.0;"/><text fill="#000000" font-family="Verdana" font-size="13" lengthAdjust="spacing" textLength="24" x="1052.5" y="244.0698">any</text></g><!--link c_TimeoutKeepAliveSendTimeout_0 to queueOfTimeoutKeepAliveSendTimeout_0--><g id="link_c_TimeoutKeepAliveSendTimeout_0_queueOfTimeoutKeepAliveSendTimeout_0"><path d="M140.31,151 C171.46,151 359.15,151 503.6,151 " fill="none" id="c_TimeoutKeepAliveSendTimeout_0-to-queueOfTimeoutKeepAliveSendTimeout_0" style="stroke:#000000;stroke-width:1.0;stroke-dasharray:7.0,7.0;"/><polygon fill="#000000" points="509.6,151,500.6,147,504.6,151,500.6,155,509.6,151" style="stroke:#000000;stroke-width:1.0;"/><text fill="#000000" font-family="Verdana" font-size="13" lengthAdjust="spacing" textLength="24" x="266.5" y="143.0698">any</text></g><!--link queueOfTimeoutKeepAliveSendTimeout_0 to comp_TimeoutKeepAliveSendTimeout_0--><g id="link_queueOfTimeoutKeepAliveSendTimeout_0_comp_TimeoutKeepAliveSendTimeout_0"><path d="M834.45,164.43 C909.83,168.97 1000.77,171.99 1082.5,168 C1149.01,164.75 1223.3916,155.3155 1244.6716,152.5055 " fill="none" id="queueOfTimeoutKeepAliveSendTimeout_0-to-comp_TimeoutKeepAliveSendTimeout_0" style="stroke:#000000;stroke-width:1.0;stroke-dasharray:7.0,7.0;"/><polygon fill="#000000" points="1250.62,151.72,1241.1738,148.9326,1245.663,152.3746,1242.2211,156.8638,1250.62,151.72" style="stroke:#000000;stroke-width:1.0;"/><text fill="#000000" font-family="Verdana" font-size="13" lengthAdjust="spacing" textLength="24" x="1052.5" y="160.0698">any</text></g><!--SRC=[xLVDJzim53_7VuNNyvQ5URkW3WbDcZHnG5ev3KsLITpMQci7nm5L4__xt98C9_vwuJZ10ThdztxFl_TfcYqNDLLqZviDhUGZ5skyehk68TG4Zzxf3TipNEye5sZ7LXfhYHLVRpIkk6Abvb9Ova9Mh64r9eKbL5HiEw4bhMbL7VryGRQK2ytKYfPiFlyX7dZ3xtRiuWB_GHZVILKnzKtkfC8t1hCn5apeumajjsibMr7vJXk3oAG-rEox5DhLU4AebFjQ2lC5pwwLORIyh6Xjp6Rp-MLp4EL6II7R1dVYquKoL4kbkS2p6xwNhDLNZDMNE_x0VhAIcJz6p6IhbsI6QOFBPKhDnZjAhcXTDkQs5TykFxrWE4TZkrzKFT1bCRJeX8wF_Z8B9gh-9cSZPrwT8DA8rkS0s5Wjnfw4sHCGemB0o1JdMqB_muIQZ-cCBXMx1sRrg3e0Tl8t1FCUEm1TEbrJwy3rwasantrGBmmvJcS4rQSQZH29HuZ0oHP0igFuBGvcAUmNckgswQnjqLlXl1NEAmido-p7n9uU7n_u79zU5Gijoysp-hEjKJm-9AQj7MEKtZnPUlLqEExsoMBhnxBgDr0sOGNPJlrRA9ksXdo0pYRAqgie40q2OrV0s7MncZXO80a_LMa672wXpFj1d07Zba30UsB896iX0HiUD92YI4UC92D69X0luCJ7yNI7pX5XC7VC_p08N2Wup_CBwCAALek5vA-cGB6CxEmoWfN5s76uVi3548Bq5awq8Y9H8J2E1PIZ5JEx7dhJuMwwRrdByEdtzIgLV8nl4L0LbRIc9TU7hsVlKMqsdJfzHhzHkiQURmgzqpcUKN6OGI_MXG7I5qDewq9ENGy3uwxFU31Sk540N0MNT00asAfHSbtpkRJw_Pucr4DugFH7VX83Gy-iY6V5s_IUzFWV6e0y-Htu4kRN36Gk0fkUVh2GZ8TM92hEQsb2O1mtiTWuoedm-C51ynpSpIJUpMHYDvDKDnD0DvDuDvFfJL40cw9uRLCKuAOefZH50MoA5r13G5NuHl7rcgdc5lMVq0VpWnutJE3K9iYJ2iOJ_eXLAx0K9KFcZla_Q6VsvbvX2gARV_deQzApTsJayLCmwBZBygJ2b4YHt2jy5UKYZv_wG7-Zfxy0]--></g></svg>