<?xml version="1.0" encoding="us-ascii" standalone="no"?><svg xmlns="http://www.w3.org/2000/svg" xmlns:xlink="http://www.w3.org/1999/xlink" contentStyleType="text/css" height="753px" preserveAspectRatio="none" style="width:2390px;height:753px;background:#FFFFFF;" version="1.1" viewBox="0 0 2390 753" width="2390px" zoomAndPan="magnify"><defs/><g><!--cluster Orion_Master_Adapter--><g id="cluster_Orion_Master_Adapter"><rect fill="#FFFFFF" height="735" rx="2.5" ry="2.5" style="stroke:#000000;stroke-width:1.0;" width="2127" x="114.5" y="12"/><rect fill="#FFFFFF" height="10" style="stroke:#000000;stroke-width:1.0;" width="15" x="2221.5" y="17"/><rect fill="#FFFFFF" height="2" style="stroke:#000000;stroke-width:1.0;" width="4" x="2219.5" y="19"/><rect fill="#FFFFFF" height="2" style="stroke:#000000;stroke-width:1.0;" width="4" x="2219.5" y="23"/><text fill="#000000" font-family="Verdana" font-size="14" font-style="italic" lengthAdjust="spacing" textLength="179" x="1088.5" y="44.0752">&#171;Asynchronous Adapter&#187;</text><text fill="#000000" font-family="Verdana" font-size="14" font-weight="bold" lengthAdjust="spacing" textLength="177" x="1089.5" y="71.0898">Orion_Master_Adapter</text></g><!--cluster comp--><g id="cluster_comp"><rect fill="#FFFFFF" height="564" rx="2.5" ry="2.5" style="stroke:#000000;stroke-width:1.0;" width="629" x="1271.5" y="84"/><rect fill="#FFFFFF" height="10" style="stroke:#000000;stroke-width:1.0;" width="15" x="1880.5" y="89"/><rect fill="#FFFFFF" height="2" style="stroke:#000000;stroke-width:1.0;" width="4" x="1878.5" y="91"/><rect fill="#FFFFFF" height="2" style="stroke:#000000;stroke-width:1.0;" width="4" x="1878.5" y="95"/><text fill="#000000" font-family="Verdana" font-size="14" font-weight="bold" lengthAdjust="spacing" textLength="241" x="1465.5" y="116.0752">master : Orion_Master_SM_ext</text></g><text fill="#000000" font-family="Verdana" font-size="14" lengthAdjust="spacing" textLength="75" x="77" y="335.0605">Block_Port</text><rect fill="#FFFFFF" height="12" style="stroke:#000000;stroke-width:1.5;" width="12" x="108.5" y="355"/><text fill="#000000" font-family="Verdana" font-size="14" lengthAdjust="spacing" textLength="117" x="61.5" y="239.0605">Connection_Port</text><rect fill="#FFFFFF" height="12" style="stroke:#000000;stroke-width:1.5;" width="12" x="114" y="259"/><text fill="#000000" font-family="Verdana" font-size="14" lengthAdjust="spacing" textLength="131" x="56" y="143.0605">StateMachine_Port</text><rect fill="#FFFFFF" height="12" style="stroke:#000000;stroke-width:1.5;" width="12" x="115.5" y="163"/><text fill="#000000" font-family="Verdana" font-size="14" lengthAdjust="spacing" textLength="251" x="11" y="644.0752">TimoeutKeepAliveReceiveTimeout_3</text><rect fill="#FFFFFF" height="12" style="stroke:#000000;stroke-width:1.5;" width="12" x="130.5" y="613"/><text fill="#000000" font-family="Verdana" font-size="14" lengthAdjust="spacing" textLength="158" x="46.5" y="548.0752">TimeoutKapcsolodik_2</text><rect fill="#FFFFFF" height="12" style="stroke:#000000;stroke-width:1.5;" width="12" x="119.5" y="517"/><text fill="#000000" font-family="Verdana" font-size="14" lengthAdjust="spacing" textLength="115" x="62" y="452.0752">TimeoutZarva_0</text><rect fill="#FFFFFF" height="12" style="stroke:#000000;stroke-width:1.5;" width="12" x="113.5" y="421"/><text fill="#000000" font-family="Verdana" font-size="14" lengthAdjust="spacing" textLength="235" x="17" y="65.0605">TimeoutKeepAliveSendTimeout_1</text><rect fill="#FFFFFF" height="12" style="stroke:#000000;stroke-width:1.5;" width="12" x="128.5" y="85"/><text fill="#000000" font-family="Verdana" font-size="14" lengthAdjust="spacing" textLength="176" x="2140.5" y="560.0752">Send_StateMachine_Port</text><rect fill="#FFFFFF" height="12" style="stroke:#000000;stroke-width:1.5;" width="12" x="2222.5" y="529"/><text fill="#000000" font-family="Verdana" font-size="14" lengthAdjust="spacing" textLength="194" x="2134" y="656.0752">Process_StateMachine_Port</text><rect fill="#FFFFFF" height="12" style="stroke:#000000;stroke-width:1.5;" width="12" x="2225" y="625"/><text fill="#000000" font-family="Verdana" font-size="14" lengthAdjust="spacing" textLength="283" x="2100" y="519.0752">TimoeutKeepAliveReceiveTimeout_3_req</text><rect fill="#FFFFFF" height="12" style="stroke:#000000;stroke-width:1.5;" width="12" x="2235.5" y="488"/><text fill="#000000" font-family="Verdana" font-size="14" lengthAdjust="spacing" textLength="190" x="2135.5" y="423.0752">TimeoutKapcsolodik_2_req</text><rect fill="#FFFFFF" height="12" style="stroke:#000000;stroke-width:1.5;" width="12" x="2224.5" y="392"/><text fill="#000000" font-family="Verdana" font-size="14" lengthAdjust="spacing" textLength="147" x="2151" y="276.0605">TimeoutZarva_0_req</text><rect fill="#FFFFFF" height="12" style="stroke:#000000;stroke-width:1.5;" width="12" x="2218.5" y="296"/><text fill="#000000" font-family="Verdana" font-size="14" lengthAdjust="spacing" textLength="267" x="2106" y="180.0605">TimeoutKeepAliveSendTimeout_1_req</text><rect fill="#FFFFFF" height="12" style="stroke:#000000;stroke-width:1.5;" width="12" x="2233.5" y="200"/><text fill="#000000" font-family="Verdana" font-size="14" lengthAdjust="spacing" textLength="47" x="2188.5" y="84.0605">Status</text><rect fill="#FFFFFF" height="12" style="stroke:#000000;stroke-width:1.5;" width="12" x="2206" y="104"/><!--entity q1--><g id="elem_q1"><path d="M621.5,241.48 L722.5,241.48 C727.5,241.48 727.5,277.002 727.5,277.002 C727.5,277.002 727.5,312.5239 722.5,312.5239 L621.5,312.5239 C616.5,312.5239 616.5,277.002 616.5,277.002 C616.5,277.002 616.5,241.48 621.5,241.48 " fill="#FFFFFF" style="stroke:#000000;stroke-width:1.0;"/><path d="M722.5,241.48 C717.5,241.48 717.5,277.002 717.5,277.002 C717.5,312.5239 722.5,312.5239 722.5,312.5239 " fill="none" style="stroke:#000000;stroke-width:1.0;"/><text fill="#000000" font-family="Verdana" font-size="14" lengthAdjust="spacing" textLength="18" x="626.5" y="265.5552">q1</text><text fill="#000000" font-family="Verdana" font-size="14" lengthAdjust="spacing" textLength="81" x="626.5" y="282.5698">capacity=1,</text><text fill="#000000" font-family="Verdana" font-size="14" lengthAdjust="spacing" textLength="70" x="626.5" y="299.5845">priority=1</text></g><!--entity Triggers--><g id="elem_Triggers"><rect fill="#FFFFFF" height="331.1318" rx="2.5" ry="2.5" style="stroke:#000000;stroke-width:1.0;" width="687" x="328.5" y="342.43"/><text fill="#000000" font-family="Verdana" font-size="14" lengthAdjust="spacing" textLength="58" x="343.5" y="364.5052">Triggers</text><line style="stroke:#000000;stroke-width:1.0;" x1="329.5" x2="1014.5" y1="372.4446" y2="372.4446"/><text fill="#000000" font-family="Verdana" font-size="14" lengthAdjust="spacing" textLength="305" x="343.5" y="395.5198">when Block_Port.Block_Port.any / run once</text><line style="stroke:#000000;stroke-width:1.0;stroke-dasharray:1.0,2.0;" x1="329.5" x2="1014.5" y1="407.4593" y2="407.4593"/><text fill="#000000" font-family="Verdana" font-size="14" lengthAdjust="spacing" textLength="389" x="343.5" y="430.5345">when Connection_Port.Connection_Port.any / run once</text><line style="stroke:#000000;stroke-width:1.0;stroke-dasharray:1.0,2.0;" x1="329.5" x2="1014.5" y1="442.4739" y2="442.4739"/><text fill="#000000" font-family="Verdana" font-size="14" lengthAdjust="spacing" textLength="543" x="343.5" y="465.5491">when Process_StateMachine_Port.Process_StateMachine_Port.any / run once</text><line style="stroke:#000000;stroke-width:1.0;stroke-dasharray:1.0,2.0;" x1="329.5" x2="1014.5" y1="477.4886" y2="477.4886"/><text fill="#000000" font-family="Verdana" font-size="14" lengthAdjust="spacing" textLength="417" x="343.5" y="500.5638">when StateMachine_Port.StateMachine_Port.any / run once</text><line style="stroke:#000000;stroke-width:1.0;stroke-dasharray:1.0,2.0;" x1="329.5" x2="1014.5" y1="512.5032" y2="512.5032"/><text fill="#000000" font-family="Verdana" font-size="14" lengthAdjust="spacing" textLength="471" x="343.5" y="535.5784">when TimeoutKapcsolodik_2.TimeoutKapcsolodik_2.any / run once</text><line style="stroke:#000000;stroke-width:1.0;stroke-dasharray:1.0,2.0;" x1="329.5" x2="1014.5" y1="547.5179" y2="547.5179"/><text fill="#000000" font-family="Verdana" font-size="14" lengthAdjust="spacing" textLength="625" x="343.5" y="570.5931">when TimeoutKeepAliveSendTimeout_1.TimeoutKeepAliveSendTimeout_1.any / run once</text><line style="stroke:#000000;stroke-width:1.0;stroke-dasharray:1.0,2.0;" x1="329.5" x2="1014.5" y1="582.5325" y2="582.5325"/><text fill="#000000" font-family="Verdana" font-size="14" lengthAdjust="spacing" textLength="385" x="343.5" y="605.6077">when TimeoutZarva_0.TimeoutZarva_0.any / run once</text><line style="stroke:#000000;stroke-width:1.0;stroke-dasharray:1.0,2.0;" x1="329.5" x2="1014.5" y1="617.5472" y2="617.5472"/><text fill="#000000" font-family="Verdana" font-size="14" lengthAdjust="spacing" textLength="657" x="343.5" y="640.6224">when TimoeutKeepAliveReceiveTimeout_3.TimoeutKeepAliveReceiveTimeout_3.any / run once</text><line style="stroke:#000000;stroke-width:1.0;stroke-dasharray:1.0,2.0;" x1="329.5" x2="1014.5" y1="652.5618" y2="652.5618"/></g><text fill="#000000" font-family="Verdana" font-size="14" lengthAdjust="spacing" textLength="75" x="1234" y="76.0605">Block_Port</text><rect fill="#FFFFFF" height="12" style="stroke:#000000;stroke-width:1.5;" width="12" x="1265.5" y="96"/><text fill="#000000" font-family="Verdana" font-size="14" lengthAdjust="spacing" textLength="117" x="1218.5" y="673.0752">Connection_Port</text><rect fill="#FFFFFF" height="12" style="stroke:#000000;stroke-width:1.5;" width="12" x="1271" y="642"/><text fill="#000000" font-family="Verdana" font-size="14" lengthAdjust="spacing" textLength="131" x="1213" y="577.0752">StateMachine_Port</text><rect fill="#FFFFFF" height="12" style="stroke:#000000;stroke-width:1.5;" width="12" x="1272.5" y="546"/><text fill="#000000" font-family="Verdana" font-size="14" lengthAdjust="spacing" textLength="251" x="1168" y="481.0752">TimoeutKeepAliveReceiveTimeout_3</text><rect fill="#FFFFFF" height="12" style="stroke:#000000;stroke-width:1.5;" width="12" x="1287.5" y="450"/><text fill="#000000" font-family="Verdana" font-size="14" lengthAdjust="spacing" textLength="158" x="1203.5" y="334.0605">TimeoutKapcsolodik_2</text><rect fill="#FFFFFF" height="12" style="stroke:#000000;stroke-width:1.5;" width="12" x="1276.5" y="354"/><text fill="#000000" font-family="Verdana" font-size="14" lengthAdjust="spacing" textLength="115" x="1219" y="238.0605">TimeoutZarva_0</text><rect fill="#FFFFFF" height="12" style="stroke:#000000;stroke-width:1.5;" width="12" x="1270.5" y="258"/><text fill="#000000" font-family="Verdana" font-size="14" lengthAdjust="spacing" textLength="235" x="1174" y="142.0605">TimeoutKeepAliveSendTimeout_1</text><rect fill="#FFFFFF" height="12" style="stroke:#000000;stroke-width:1.5;" width="12" x="1285.5" y="162"/><text fill="#000000" font-family="Verdana" font-size="14" lengthAdjust="spacing" textLength="176" x="1799.5" y="560.0752">Send_StateMachine_Port</text><rect fill="#FFFFFF" height="12" style="stroke:#000000;stroke-width:1.5;" width="12" x="1881.5" y="529"/><text fill="#000000" font-family="Verdana" font-size="14" lengthAdjust="spacing" textLength="194" x="1793" y="656.0752">Process_StateMachine_Port</text><rect fill="#FFFFFF" height="12" style="stroke:#000000;stroke-width:1.5;" width="12" x="1884" y="625"/><text fill="#000000" font-family="Verdana" font-size="14" lengthAdjust="spacing" textLength="283" x="1759" y="519.0752">TimoeutKeepAliveReceiveTimeout_3_req</text><rect fill="#FFFFFF" height="12" style="stroke:#000000;stroke-width:1.5;" width="12" x="1894.5" y="488"/><text fill="#000000" font-family="Verdana" font-size="14" lengthAdjust="spacing" textLength="190" x="1794.5" y="423.0752">TimeoutKapcsolodik_2_req</text><rect fill="#FFFFFF" height="12" style="stroke:#000000;stroke-width:1.5;" width="12" x="1883.5" y="392"/><text fill="#000000" font-family="Verdana" font-size="14" lengthAdjust="spacing" textLength="147" x="1810" y="276.0605">TimeoutZarva_0_req</text><rect fill="#FFFFFF" height="12" style="stroke:#000000;stroke-width:1.5;" width="12" x="1877.5" y="296"/><text fill="#000000" font-family="Verdana" font-size="14" lengthAdjust="spacing" textLength="267" x="1765" y="180.0605">TimeoutKeepAliveSendTimeout_1_req</text><rect fill="#FFFFFF" height="12" style="stroke:#000000;stroke-width:1.5;" width="12" x="1892.5" y="200"/><text fill="#000000" font-family="Verdana" font-size="14" lengthAdjust="spacing" textLength="47" x="1847.5" y="84.0605">Status</text><rect fill="#FFFFFF" height="12" style="stroke:#000000;stroke-width:1.5;" width="12" x="1865" y="104"/><!--link comp_Send_StateMachine_Port to c_Send_StateMachine_Port--><g id="link_comp_Send_StateMachine_Port_c_Send_StateMachine_Port"><path d="M1893.29,535 C1929.39,535 2176.32,535 2216.6,535 " fill="none" id="comp_Send_StateMachine_Port-to-c_Send_StateMachine_Port" style="stroke:#000000;stroke-width:1.0;stroke-dasharray:7.0,7.0;"/><polygon fill="#000000" points="2222.6,535,2213.6,531,2217.6,535,2213.6,539,2222.6,535" style="stroke:#000000;stroke-width:1.0;"/></g><!--link comp_Process_StateMachine_Port to c_Process_StateMachine_Port--><g id="link_comp_Process_StateMachine_Port_c_Process_StateMachine_Port"><path d="M1895.79,631 C1933.94,631 2181.89,631 2219.38,631 " fill="none" id="comp_Process_StateMachine_Port-to-c_Process_StateMachine_Port" style="stroke:#000000;stroke-width:1.0;stroke-dasharray:7.0,7.0;"/><polygon fill="#000000" points="2225.38,631,2216.38,627,2220.38,631,2216.38,635,2225.38,631" style="stroke:#000000;stroke-width:1.0;"/></g><!--link comp_TimoeutKeepAliveReceiveTimeout_3_req to c_TimoeutKeepAliveReceiveTimeout_3_req--><g id="link_comp_TimoeutKeepAliveReceiveTimeout_3_req_c_TimoeutKeepAliveReceiveTimeout_3_req"><path d="M1906.29,494 C1942.39,494 2189.32,494 2229.6,494 " fill="none" id="comp_TimoeutKeepAliveReceiveTimeout_3_req-to-c_TimoeutKeepAliveReceiveTimeout_3_req" style="stroke:#000000;stroke-width:1.0;stroke-dasharray:7.0,7.0;"/><polygon fill="#000000" points="2235.6,494,2226.6,490,2230.6,494,2226.6,498,2235.6,494" style="stroke:#000000;stroke-width:1.0;"/></g><!--link comp_TimeoutKapcsolodik_2_req to c_TimeoutKapcsolodik_2_req--><g id="link_comp_TimeoutKapcsolodik_2_req_c_TimeoutKapcsolodik_2_req"><path d="M1895.29,398 C1931.39,398 2178.32,398 2218.6,398 " fill="none" id="comp_TimeoutKapcsolodik_2_req-to-c_TimeoutKapcsolodik_2_req" style="stroke:#000000;stroke-width:1.0;stroke-dasharray:7.0,7.0;"/><polygon fill="#000000" points="2224.6,398,2215.6,394,2219.6,398,2215.6,402,2224.6,398" style="stroke:#000000;stroke-width:1.0;"/></g><!--link comp_TimeoutZarva_0_req to c_TimeoutZarva_0_req--><g id="link_comp_TimeoutZarva_0_req_c_TimeoutZarva_0_req"><path d="M1889.29,302 C1925.39,302 2172.32,302 2212.6,302 " fill="none" id="comp_TimeoutZarva_0_req-to-c_TimeoutZarva_0_req" style="stroke:#000000;stroke-width:1.0;stroke-dasharray:7.0,7.0;"/><polygon fill="#000000" points="2218.6,302,2209.6,298,2213.6,302,2209.6,306,2218.6,302" style="stroke:#000000;stroke-width:1.0;"/></g><!--link comp_TimeoutKeepAliveSendTimeout_1_req to c_TimeoutKeepAliveSendTimeout_1_req--><g id="link_comp_TimeoutKeepAliveSendTimeout_1_req_c_TimeoutKeepAliveSendTimeout_1_req"><path d="M1904.29,206 C1940.39,206 2187.32,206 2227.6,206 " fill="none" id="comp_TimeoutKeepAliveSendTimeout_1_req-to-c_TimeoutKeepAliveSendTimeout_1_req" style="stroke:#000000;stroke-width:1.0;stroke-dasharray:7.0,7.0;"/><polygon fill="#000000" points="2233.6,206,2224.6,202,2228.6,206,2224.6,210,2233.6,206" style="stroke:#000000;stroke-width:1.0;"/></g><!--link comp_Status to c_Status--><g id="link_comp_Status_c_Status"><path d="M1876.79,110 C1914.94,110 2162.89,110 2200.38,110 " fill="none" id="comp_Status-to-c_Status" style="stroke:#000000;stroke-width:1.0;stroke-dasharray:7.0,7.0;"/><polygon fill="#000000" points="2206.38,110,2197.38,106,2201.38,110,2197.38,114,2206.38,110" style="stroke:#000000;stroke-width:1.0;"/></g><!--link c_Block_Port to q1--><g id="link_c_Block_Port_q1"><path d="M120.45,360.22 C142.28,356.41 240.11,339.41 320.5,327 C424.83,310.89 540.9853,294.7025 610.0553,285.2625 " fill="none" id="c_Block_Port-to-q1" style="stroke:#000000;stroke-width:1.0;stroke-dasharray:7.0,7.0;"/><polygon fill="#000000" points="616,284.45,606.5412,281.7056,611.0461,285.1271,607.6246,289.6319,616,284.45" style="stroke:#000000;stroke-width:1.0;"/><text fill="#000000" font-family="Verdana" font-size="13" lengthAdjust="spacing" textLength="24" x="266.5" y="323.0698">any</text></g><!--link q1 to comp_Block_Port--><g id="link_q1_comp_Block_Port"><path d="M727.94,259.47 C815.22,231.83 991.07,176.94 1141.5,135 C1189.33,121.67 1241.8537,108.9521 1259.7137,104.6921 " fill="none" id="q1-to-comp_Block_Port" style="stroke:#000000;stroke-width:1.0;stroke-dasharray:7.0,7.0;"/><polygon fill="#000000" points="1265.55,103.3,1255.8675,101.4973,1260.6864,104.4601,1257.7236,109.279,1265.55,103.3" style="stroke:#000000;stroke-width:1.0;"/><text fill="#000000" font-family="Verdana" font-size="13" lengthAdjust="spacing" textLength="24" x="1052.5" y="144.0698">any</text></g><!--link c_Connection_Port to q1--><g id="link_c_Connection_Port_q1"><path d="M125.75,265.1 C168.38,266.03 480.2514,272.8392 610.0514,275.6692 " fill="none" id="c_Connection_Port-to-q1" style="stroke:#000000;stroke-width:1.0;stroke-dasharray:7.0,7.0;"/><polygon fill="#000000" points="616.05,275.8,607.1393,271.6048,611.0512,275.691,606.9649,279.6029,616.05,275.8" style="stroke:#000000;stroke-width:1.0;"/><text fill="#000000" font-family="Verdana" font-size="13" lengthAdjust="spacing" textLength="24" x="266.5" y="261.0698">any</text></g><!--link q1 to comp_Connection_Port--><g id="link_q1_comp_Connection_Port"><path d="M727.87,267.39 C803.35,257.6 938.57,252.9 1015.5,327 C1029.17,340.17 1037.44,478.32 1046.5,495 C1099.05,591.79 1236.6646,636.4644 1265.2446,644.8844 " fill="none" id="q1-to-comp_Connection_Port" style="stroke:#000000;stroke-width:1.0;stroke-dasharray:7.0,7.0;"/><polygon fill="#000000" points="1271,646.58,1263.4973,640.1996,1266.2038,645.167,1261.2365,647.8735,1271,646.58" style="stroke:#000000;stroke-width:1.0;"/><text fill="#000000" font-family="Verdana" font-size="13" lengthAdjust="spacing" textLength="24" x="1052.5" y="487.0698">any</text></g><!--link c_Process_StateMachine_Port to q1--><g id="link_c_Process_StateMachine_Port_q1"><path d="M2225.21,634.76 C2204.91,650.34 2123.35,709 2046.5,709 C1063.5,709 1063.5,709 1063.5,709 C1020.72,709 1045.44,357.55 1015.5,327 C940.52,250.51 809.8429,255.4741 733.7829,266.0441 " fill="none" id="c_Process_StateMachine_Port-to-q1" style="stroke:#000000;stroke-width:1.0;stroke-dasharray:7.0,7.0;"/><polygon fill="#000000" points="727.84,266.87,737.3049,269.5931,732.7924,266.1818,736.2037,261.6693,727.84,266.87" style="stroke:#000000;stroke-width:1.0;"/><text fill="#000000" font-family="Verdana" font-size="13" lengthAdjust="spacing" textLength="24" x="1407.5" y="701.0698">any</text></g><!--link q1 to comp_Process_StateMachine_Port--><g id="link_q1_comp_Process_StateMachine_Port"><path d="M727.96,250.42 C799.88,216.37 930.46,157.11 1046.5,118 C1084.29,105.26 1104.73,123.63 1133.5,96 C1142.53,87.33 1131.47,76.49 1141.5,69 C1196.95,27.6 1701.34,58.85 1728.5,87 C1747.05,106.23 1721.46,545.91 1736.5,568 C1772.62,621.04 1856.3004,629.1364 1878.1504,630.4264 " fill="none" id="q1-to-comp_Process_StateMachine_Port" style="stroke:#000000;stroke-width:1.0;stroke-dasharray:7.0,7.0;"/><polygon fill="#000000" points="1884.14,630.78,1875.3914,626.2565,1879.1487,630.4853,1874.9199,634.2426,1884.14,630.78" style="stroke:#000000;stroke-width:1.0;"/><text fill="#000000" font-family="Verdana" font-size="13" lengthAdjust="spacing" textLength="24" x="1103.5" y="88.0698">any</text></g><!--link c_StateMachine_Port to q1--><g id="link_c_StateMachine_Port_q1"><path d="M127.41,169.87 C168.53,177.97 480.3632,239.4298 610.1532,265.0098 " fill="none" id="c_StateMachine_Port-to-q1" style="stroke:#000000;stroke-width:1.0;stroke-dasharray:7.0,7.0;"/><polygon fill="#000000" points="616.04,266.17,607.9833,260.5052,611.1344,265.2032,606.4364,268.3542,616.04,266.17" style="stroke:#000000;stroke-width:1.0;"/><text fill="#000000" font-family="Verdana" font-size="13" lengthAdjust="spacing" textLength="24" x="266.5" y="189.0698">any</text></g><!--link q1 to comp_StateMachine_Port--><g id="link_q1_comp_StateMachine_Port"><path d="M727.82,268.7 C802.01,260.72 934.38,258.44 1015.5,327 C1032.62,341.47 1033.15,404.99 1046.5,423 C1108.98,507.27 1237.9589,542.3463 1266.7089,549.3163 " fill="none" id="q1-to-comp_StateMachine_Port" style="stroke:#000000;stroke-width:1.0;stroke-dasharray:7.0,7.0;"/><polygon fill="#000000" points="1272.54,550.73,1264.7358,544.7221,1267.6808,549.552,1262.8509,552.4969,1272.54,550.73" style="stroke:#000000;stroke-width:1.0;"/><text fill="#000000" font-family="Verdana" font-size="13" lengthAdjust="spacing" textLength="24" x="1052.5" y="415.0698">any</text></g><!--link c_TimeoutKapcsolodik_2 to q1--><g id="link_c_TimeoutKapcsolodik_2_q1"><path d="M131.24,521.81 C152.7,515.54 250.03,484.35 296.5,422 C303,413.27 312.4,334.28 320.5,327 C401.96,253.73 533.9561,257.5077 610.2361,267.0177 " fill="none" id="c_TimeoutKapcsolodik_2-to-q1" style="stroke:#000000;stroke-width:1.0;stroke-dasharray:7.0,7.0;"/><polygon fill="#000000" points="616.19,267.76,607.754,262.6773,611.2284,267.1414,606.7643,270.6158,616.19,267.76" style="stroke:#000000;stroke-width:1.0;"/><text fill="#000000" font-family="Verdana" font-size="13" lengthAdjust="spacing" textLength="24" x="266.5" y="414.0698">any</text></g><!--link q1 to comp_TimeoutKapcsolodik_2--><g id="link_q1_comp_TimeoutKapcsolodik_2"><path d="M727.85,284.48 C867.31,303.48 1221.945,351.8198 1270.595,358.4498 " fill="none" id="q1-to-comp_TimeoutKapcsolodik_2" style="stroke:#000000;stroke-width:1.0;stroke-dasharray:7.0,7.0;"/><polygon fill="#000000" points="1276.54,359.26,1268.1626,354.0814,1271.5858,358.5848,1267.0823,362.0081,1276.54,359.26" style="stroke:#000000;stroke-width:1.0;"/><text fill="#000000" font-family="Verdana" font-size="13" lengthAdjust="spacing" textLength="24" x="1052.5" y="321.0698">any</text></g><!--link c_TimeoutKeepAliveSendTimeout_1 to q1--><g id="link_c_TimeoutKeepAliveSendTimeout_1_q1"><path d="M140.31,92.5 C180.36,106.42 483.4328,211.7896 610.7328,256.0496 " fill="none" id="c_TimeoutKeepAliveSendTimeout_1-to-q1" style="stroke:#000000;stroke-width:1.0;stroke-dasharray:7.0,7.0;"/><polygon fill="#000000" points="616.4,258.02,609.2127,251.2862,611.6773,256.378,606.5856,258.8426,616.4,258.02" style="stroke:#000000;stroke-width:1.0;"/><text fill="#000000" font-family="Verdana" font-size="13" lengthAdjust="spacing" textLength="24" x="266.5" y="127.0698">any</text></g><!--link q1 to comp_TimeoutKeepAliveSendTimeout_1--><g id="link_q1_comp_TimeoutKeepAliveSendTimeout_1"><path d="M727.84,267.33 C869.05,242.42 1231.5312,178.4921 1279.8412,169.9721 " fill="none" id="q1-to-comp_TimeoutKeepAliveSendTimeout_1" style="stroke:#000000;stroke-width:1.0;stroke-dasharray:7.0,7.0;"/><polygon fill="#000000" points="1285.75,168.93,1276.1921,166.5539,1280.826,169.7984,1277.5815,174.4323,1285.75,168.93" style="stroke:#000000;stroke-width:1.0;"/><text fill="#000000" font-family="Verdana" font-size="13" lengthAdjust="spacing" textLength="24" x="1052.5" y="198.0698">any</text></g><!--link c_TimeoutZarva_0 to q1--><g id="link_c_TimeoutZarva_0_q1"><path d="M125.15,425.79 C139.61,421.58 189.04,407.09 229.5,394 C259.45,384.31 272.44,391.31 296.5,371 C305.01,363.82 311.35,333.35 320.5,327 C409.51,265.24 536.1079,264.3566 610.0779,270.0866 " fill="none" id="c_TimeoutZarva_0-to-q1" style="stroke:#000000;stroke-width:1.0;stroke-dasharray:7.0,7.0;"/><polygon fill="#000000" points="616.06,270.55,607.3958,265.8669,611.0749,270.1638,606.778,273.843,616.06,270.55" style="stroke:#000000;stroke-width:1.0;"/><text fill="#000000" font-family="Verdana" font-size="13" lengthAdjust="spacing" textLength="24" x="266.5" y="363.0698">any</text></g><!--link q1 to comp_TimeoutZarva_0--><g id="link_q1_comp_TimeoutZarva_0"><path d="M727.84,275.82 C866.33,272.83 1216.5514,265.2786 1264.6114,264.2486 " fill="none" id="q1-to-comp_TimeoutZarva_0" style="stroke:#000000;stroke-width:1.0;stroke-dasharray:7.0,7.0;"/><polygon fill="#000000" points="1270.61,264.12,1261.5264,260.3138,1265.6111,264.2271,1261.6978,268.3119,1270.61,264.12" style="stroke:#000000;stroke-width:1.0;"/><text fill="#000000" font-family="Verdana" font-size="13" lengthAdjust="spacing" textLength="24" x="1052.5" y="261.0698">any</text></g><!--link c_TimoeutKeepAliveReceiveTimeout_3 to q1--><g id="link_c_TimoeutKeepAliveReceiveTimeout_3_q1"><path d="M142.23,617.22 C163.56,607.97 259.79,563.13 296.5,492 C300.75,483.77 313.94,333.54 320.5,327 C398.41,249.31 532.7891,254.9799 610.1491,265.9199 " fill="none" id="c_TimoeutKeepAliveReceiveTimeout_3-to-q1" style="stroke:#000000;stroke-width:1.0;stroke-dasharray:7.0,7.0;"/><polygon fill="#000000" points="616.09,266.76,607.7388,261.5392,611.1393,266.0599,606.6186,269.4604,616.09,266.76" style="stroke:#000000;stroke-width:1.0;"/><text fill="#000000" font-family="Verdana" font-size="13" lengthAdjust="spacing" textLength="24" x="266.5" y="484.0698">any</text></g><!--link q1 to comp_TimoeutKeepAliveReceiveTimeout_3--><g id="link_q1_comp_TimoeutKeepAliveReceiveTimeout_3"><path d="M727.8,272.89 C799.06,270.13 925.06,274.23 1015.5,327 C1034.93,338.34 1028.31,353.77 1046.5,367 C1130.38,428.03 1254.4517,450.025 1281.8817,454.305 " fill="none" id="q1-to-comp_TimoeutKeepAliveReceiveTimeout_3" style="stroke:#000000;stroke-width:1.0;stroke-dasharray:7.0,7.0;"/><polygon fill="#000000" points="1287.81,455.23,1279.5343,449.8903,1282.8698,454.4592,1278.3009,457.7947,1287.81,455.23" style="stroke:#000000;stroke-width:1.0;"/><text fill="#000000" font-family="Verdana" font-size="13" lengthAdjust="spacing" textLength="24" x="1052.5" y="359.0698">any</text></g><!--SRC=[xLTHJzim47wsVuNNvosZGtj11OaXJPeG6Xey3Q78E4ThDRLJsu5L4_zzJaaQDxQJT4-RH5yQtzttNNhVtINLIouAgkYAw0NDv3CNS_98SmqOwwZhdLd02aYHKovm3e-664aKdoyCoRW2PhWK3bp833GKvFZ8CIegbhNHiHOqoweydx5hvSA0UgGCPhDluebh_f33sHdvZGbva2e3TI5pgSYjvTGM0S9K7igMSoLBaOMysZA2D9i2lafX_8WNZ9bS5LBO0vbyL_ONfLUqGgNd6ItizsGsEzSRmHPA2bbgKfktzuLm8PNXWao-v98jqsjxcX2g2KjRmoxcGWhnMZGti6FTHTyOQk2AiWKNuCPxzXtYbgyabEOIe3ZF-HFy00Rsovf1bYOzhWc6mbo-od992wPjuJA-J3-r79whY_j9rHDDZ_OHjT7BqTpC3OYikPDf9ram1hz9y6z8O2zjnQmzZPOjw6p1rqeoq3gAZ_fRYg72fWhM8pMeGlU8lMhlamNT7a5TV1_gEFoimR87qaVZ78LiyKhjD7Aft_Jxt_L3o7sAhRRFBt92zXvdDrSf_AgbiB7LqoksEQtRNPweTtjMmTq5YWOsQ8Nnkm0TjaKhai55YeOtQStZBrFKjqqTLBDGqG4RrKqQNgfer51kAncUIpHsC2kE-6oYlnZECT9isngD7D2OHc4IRqXziIBP1mPrKBKEhJkiJS_RURKldRX7EP8aoLbyt_RhrO3ZWevMfw4QfMIlH0vJMCA8GXsSgzquBRg9uw8v-kpgNs_NTGabaFMKa3kydc962ygusPnEt-F2RbYrlSRts7tZVEMmc1CoeM8piS2QTd-vxlpUMsW_GpUufHdeZ1XX7DPI7qZPHnNgX7ws8C8d32eyZZaCzLBKNJYAiudT8-aTfa7QVdI3ibsgCljFby_deFGTRgxm1_l1pmiGf6t2nBcqQFAHg58GAHXWcpfv3UzqND8zHu7HpahYdYYP7te0EDH2IT0uI17ibQJVEqHQDqlIEVR1UfiX6Gm8KT_Zbpy0]--></g></svg>