<?xml version="1.0" encoding="us-ascii" standalone="no"?><svg xmlns="http://www.w3.org/2000/svg" xmlns:xlink="http://www.w3.org/1999/xlink" contentStyleType="text/css" height="336px" preserveAspectRatio="none" style="width:561px;height:336px;background:#FFFFFF;" version="1.1" viewBox="0 0 561 336" width="561px" zoomAndPan="magnify"><defs/><g><rect fill="#F1F1F1" height="27.6094" style="stroke:#F1F1F1;stroke-width:1.0;" width="547.72" x="7" y="7"/><rect fill="none" height="323.6094" style="stroke:#181818;stroke-width:0.5;" width="547.72" x="7" y="7"/><line style="stroke:#181818;stroke-width:0.5;" x1="7" x2="554.72" y1="34.6094" y2="34.6094"/><text fill="#000000" font-family="sans-serif" font-size="14" lengthAdjust="spacing" textLength="68" x="246.86" y="26.5332">Status_SM</text><ellipse cx="189.72" cy="71.6094" fill="#222222" rx="10" ry="10" style="stroke:#222222;stroke-width:1.0;"/><g id="Status_SM.no_conn"><rect fill="#F1F1F1" height="50" rx="12.5" ry="12.5" style="stroke:#181818;stroke-width:0.5;" width="75" x="218.22" y="46.6094"/><line style="stroke:#181818;stroke-width:0.5;" x1="218.22" x2="293.22" y1="74.2188" y2="74.2188"/><text fill="#000000" font-family="sans-serif" font-size="14" lengthAdjust="spacing" textLength="55" x="228.22" y="66.1426">no_conn</text></g><g id="Status_SM.master_conn"><rect fill="#F1F1F1" height="50" rx="12.5" ry="12.5" style="stroke:#181818;stroke-width:0.5;" width="102" x="128.72" y="150.6094"/><line style="stroke:#181818;stroke-width:0.5;" x1="128.72" x2="230.72" y1="178.2188" y2="178.2188"/><text fill="#000000" font-family="sans-serif" font-size="14" lengthAdjust="spacing" textLength="82" x="138.72" y="170.1426">master_conn</text></g><g id="Status_SM.slave_conn"><rect fill="#F1F1F1" height="50" rx="12.5" ry="12.5" style="stroke:#181818;stroke-width:0.5;" width="92" x="285.72" y="150.6094"/><line style="stroke:#181818;stroke-width:0.5;" x1="285.72" x2="377.72" y1="178.2188" y2="178.2188"/><text fill="#000000" font-family="sans-serif" font-size="14" lengthAdjust="spacing" textLength="72" x="295.72" y="170.1426">slave_conn</text></g><g id="Status_SM.system_conn"><rect fill="#F1F1F1" height="50" rx="12.5" ry="12.5" style="stroke:#181818;stroke-width:0.5;" width="103" x="203.22" y="270.6094"/><line style="stroke:#181818;stroke-width:0.5;" x1="203.22" x2="306.22" y1="298.2188" y2="298.2188"/><text fill="#000000" font-family="sans-serif" font-size="14" lengthAdjust="spacing" textLength="83" x="213.22" y="290.1426">system_conn</text></g><!--link *start*Status_SM to no_conn--><g id="link_*start*Status_SM_no_conn"><path d="M200.03,71.6094 C205.98,71.6094 205.92,71.6094 211.87,71.6094 " fill="none" id="*start*Status_SM-to-no_conn" style="stroke:#181818;stroke-width:1.0;"/><polygon fill="#181818" points="217.87,71.6094,208.87,67.6094,212.87,71.6094,208.87,75.6094,217.87,71.6094" style="stroke:#181818;stroke-width:1.0;"/></g><!--link no_conn to master_conn--><g id="link_no_conn_master_conn"><path d="M217.98,93.3294 C214.9,94.5694 211.79,95.6894 208.72,96.6094 C173.81,107.0694 70.03,87.4594 45.72,114.6094 C18,145.5594 73.969,160.5122 122.609,167.9522 " fill="none" id="no_conn-to-master_conn" style="stroke:#181818;stroke-width:1.0;"/><polygon fill="#181818" points="128.54,168.8594,120.2483,163.5445,123.5975,168.1034,119.0387,171.4526,128.54,168.8594" style="stroke:#181818;stroke-width:1.0;"/><text fill="#000000" font-family="sans-serif" font-size="13" lengthAdjust="spacing" textLength="110" x="46.72" y="129.1045">masterStatus.conn</text></g><!--link master_conn to no_conn--><g id="link_master_conn_no_conn"><path d="M174.78,150.2994 C173.71,138.7394 174.42,125.1594 180.72,114.6094 C181.92,112.6094 194.556,105.4104 212.566,95.6404 " fill="none" id="master_conn-to-no_conn" style="stroke:#181818;stroke-width:1.0;"/><polygon fill="#181818" points="217.84,92.7794,208.0217,93.5549,213.445,95.1635,211.8364,100.5869,217.84,92.7794" style="stroke:#181818;stroke-width:1.0;"/><text fill="#000000" font-family="sans-serif" font-size="13" lengthAdjust="spacing" textLength="127" x="181.72" y="129.1045">masterStatus.disconn</text></g><!--link no_conn to slave_conn--><g id="link_no_conn_slave_conn"><path d="M292.89,96.9794 C299.09,102.2394 305.03,108.1794 309.72,114.6094 C317.44,125.1794 321.0087,133.0086 324.4487,144.5686 " fill="none" id="no_conn-to-slave_conn" style="stroke:#181818;stroke-width:1.0;"/><polygon fill="#181818" points="326.16,150.3194,327.4269,140.5523,324.7339,145.5271,319.7592,142.8341,326.16,150.3194" style="stroke:#181818;stroke-width:1.0;"/><text fill="#000000" font-family="sans-serif" font-size="13" lengthAdjust="spacing" textLength="99" x="319.72" y="129.1045">slaveStatus.conn</text></g><!--link slave_conn to no_conn--><g id="link_slave_conn_no_conn"><path d="M378.21,162.8394 C408.96,152.7594 440.74,136.3994 423.72,114.6094 C407.85,94.2894 343.8019,83.1079 299.3119,77.4379 " fill="none" id="slave_conn-to-no_conn" style="stroke:#181818;stroke-width:1.0;"/><polygon fill="#181818" points="293.36,76.6794,301.7821,81.7851,298.3199,77.3115,302.7935,73.8493,293.36,76.6794" style="stroke:#181818;stroke-width:1.0;"/><text fill="#000000" font-family="sans-serif" font-size="13" lengthAdjust="spacing" textLength="116" x="428.72" y="129.1045">slaveStatus.disconn</text></g><!--link master_conn to system_conn--><g id="link_master_conn_system_conn"><path d="M176.22,200.9494 C175.19,216.7894 176.29,237.2794 185.72,252.6094 C190.05,259.6594 191.2971,262.0404 197.9671,267.1504 " fill="none" id="master_conn-to-system_conn" style="stroke:#181818;stroke-width:1.0;"/><polygon fill="#181818" points="202.73,270.7994,198.0183,262.1507,198.7609,267.7586,193.153,268.5012,202.73,270.7994" style="stroke:#181818;stroke-width:1.0;"/><text fill="#000000" font-family="sans-serif" font-size="13" lengthAdjust="spacing" textLength="111" x="191.72" y="233.1045">slaveStatus.conn  /</text><text fill="#000000" font-family="sans-serif" font-size="13" lengthAdjust="spacing" textLength="121" x="186.72" y="249.4561">systemStatus.conn()</text></g><!--link slave_conn to system_conn--><g id="link_slave_conn_system_conn"><path d="M328.29,200.8594 C325.16,216.6694 319.33,237.1594 308.72,252.6094 C304.28,259.0694 303.0855,261.0729 297.0155,266.3029 " fill="none" id="slave_conn-to-system_conn" style="stroke:#181818;stroke-width:1.0;"/><polygon fill="#181818" points="292.47,270.2194,301.8992,267.375,296.2579,266.9557,296.6773,261.3144,292.47,270.2194" style="stroke:#181818;stroke-width:1.0;"/><text fill="#000000" font-family="sans-serif" font-size="13" lengthAdjust="spacing" textLength="122" x="324.72" y="233.1045">masterStatus.conn  /</text><text fill="#000000" font-family="sans-serif" font-size="13" lengthAdjust="spacing" textLength="121" x="325.22" y="249.4561">systemStatus.conn()</text></g><!--SRC=[TP5V2uCW5CMVxLFS1s5_eDfpI2zxtijwt8R8aX7KbQaDOkoxpsg2rG8Hp-7Stn4bpDYkbdb4I6AUhT2ow3MydK7EgiNog3HA3GTdV2B2KfytLbW9XTjRmuiJC1RCv_b0s6Zvg1HcG2blH8MSKkTUzZU8Sq35xmeHdEEFiRCROQpKeyv-Qcn9V3oCn05f5Yyhyw_0rE8b_S0WPlWWCAM7uG0-luxfd6vM6o2zuXW9tErkMJpbB5zY7JIigF-lBm00]--></g></svg>