<?xml version="1.0" encoding="UTF-8" standalone="no"?><svg xmlns="http://www.w3.org/2000/svg" xmlns:xlink="http://www.w3.org/1999/xlink" contentStyleType="text/css" height="174px" preserveAspectRatio="none" style="width:711px;height:174px;background:#FFFFFF;" version="1.1" viewBox="0 0 711 174" width="711px" zoomAndPan="magnify"><defs/><g><rect fill="#F1F1F1" height="27.6094" style="stroke:#F1F1F1;stroke-width:1.0;" width="697.5" x="7" y="7"/><rect fill="none" height="161.6094" style="stroke:#181818;stroke-width:0.5;" width="697.5" x="7" y="7"/><line style="stroke:#181818;stroke-width:0.5;" x1="7" x2="704.5" y1="34.6094" y2="34.6094"/><text fill="#000000" font-family="sans-serif" font-size="14" lengthAdjust="spacing" textLength="96" x="307.75" y="26.5332">CameraControl</text><ellipse cx="28" cy="71.6094" fill="#222222" rx="10" ry="10" style="stroke:none;stroke-width:1.0;"/><g id="CameraControl.MainOperation"><rect fill="#F1F1F1" height="50" rx="12.5" ry="12.5" style="stroke:#181818;stroke-width:0.5;" width="113" x="56.5" y="46.6094"/><line style="stroke:#181818;stroke-width:0.5;" x1="56.5" x2="169.5" y1="74.2188" y2="74.2188"/><text fill="#000000" font-family="sans-serif" font-size="14" lengthAdjust="spacing" textLength="93" x="66.5" y="66.1426">MainOperation</text></g><!--MD5=[cebafdc8582dd7a5611cb26d8167eb25]
link *start*CameraControl to MainOperation--><g id="link_*start*CameraControl_MainOperation"><path d="M38.29,71.6094 C42.09,71.6094 45.9,71.6094 49.7,71.6094 " fill="none" id="*start*CameraControl-to-MainOperation" style="stroke:#181818;stroke-width:1.0;"/><polygon fill="#181818" points="54.58,71.6094,45.58,67.6094,49.58,71.6094,45.58,75.6094,54.58,71.6094" style="stroke:#181818;stroke-width:1.0;"/></g><!--MD5=[17c305a59ad7812814992a626c9900a4]
link MainOperation to MainOperation--><g id="link_MainOperation_MainOperation"><path d="M169.84,62.7494 C180.22,63.8694 187.5,66.8194 187.5,71.6094 C187.5,75.3494 183.06,77.9694 176.17,79.4694 " fill="none" id="MainOperation-to-MainOperation" style="stroke:#181818;stroke-width:1.0;"/><polygon fill="#181818" points="171.34,80.2294,180.8564,82.7669,176.278,79.4444,179.6004,74.8661,171.34,80.2294" style="stroke:#181818;stroke-width:1.0;"/><text fill="#000000" font-family="sans-serif" font-size="13" lengthAdjust="spacing" textLength="43" x="233" y="69.1045">cycle  /</text><text fill="#000000" font-family="sans-serif" font-size="13" lengthAdjust="spacing" textLength="122" x="193.5" y="85.4561">Requests.newEvent()</text></g><line style="stroke:#181818;stroke-width:1.5;stroke-dasharray:8.0,10.0;" x1="12" x2="697.5" y1="101.6094" y2="101.6094"/><ellipse cx="28" cy="133.6094" fill="#222222" rx="10" ry="10" style="stroke:none;stroke-width:1.0;"/><g id="CameraControl.CONC3244.MainOperation2"><rect fill="#F1F1F1" height="50" rx="12.5" ry="12.5" style="stroke:#181818;stroke-width:0.5;" width="121" x="56.5" y="108.6094"/><line style="stroke:#181818;stroke-width:0.5;" x1="56.5" x2="177.5" y1="136.2188" y2="136.2188"/><text fill="#000000" font-family="sans-serif" font-size="14" lengthAdjust="spacing" textLength="101" x="66.5" y="128.1426">MainOperation2</text></g><!--MD5=[4d8cfedade4e5f3a2f60b8f845cd381c]
link *start*CONC3244 to MainOperation2--><g id="link_*start*CONC3244_MainOperation2"><path d="M38.43,133.6094 C42.23,133.6094 46.03,133.6094 49.83,133.6094 " fill="none" id="*start*CONC3244-to-MainOperation2" style="stroke:#181818;stroke-width:1.0;"/><polygon fill="#181818" points="54.72,133.6094,45.72,129.6094,49.72,133.6094,45.72,137.6094,54.72,133.6094" style="stroke:#181818;stroke-width:1.0;"/></g><!--MD5=[3aad013e8d8373fdf2b0482f8e31067d]
link MainOperation2 to MainOperation2--><g id="link_MainOperation2_MainOperation2"><path d="M177.89,124.8594 C188.29,126.0494 195.5,128.9694 195.5,133.6094 C195.5,137.2294 191.1,139.8094 184.22,141.3294 " fill="none" id="MainOperation2-to-MainOperation2" style="stroke:#181818;stroke-width:1.0;"/><polygon fill="#181818" points="179.38,142.1194,188.9046,144.6257,184.3154,141.3183,187.6228,136.7291,179.38,142.1194" style="stroke:#181818;stroke-width:1.0;"/><text fill="#000000" font-family="sans-serif" font-size="13" lengthAdjust="spacing" textLength="140" x="375.5" y="131.1045">DriverImages.newData  /</text><text fill="#000000" font-family="sans-serif" font-size="13" lengthAdjust="spacing" textLength="488" x="201.5" y="147.4561">NetworkImages.newData(DriverImages.newData::blurred, DriverImages.newData::car)</text></g><!--MD5=[37834e022398e0907f84490970a3720f]
@startuml
	<style>
		.squareStyle {
			RoundCorner 0
		}
	</style>
	state CameraControl <<squareStyle>> {
		'region: $$_main_$$
		[*] -> MainOperation 
		MainOperation -> MainOperation : cycle  /\nRequests.newEvent()
		
		- -
		
		'region: $$_main2_$$
		[*] -> MainOperation2 
		MainOperation2 -> MainOperation2 : DriverImages.newData  /\nNetworkImages.newData(DriverImages.newData::blurred, DriverImages.newData::car)
		
		
	
	}
	
@enduml

@startuml
	<style>
		.squareStyle {
			RoundCorner 0
		}
	</style>
	state CameraControl <<squareStyle>> {
		[*] -> MainOperation 
		MainOperation -> MainOperation : cycle  /\nRequests.newEvent()
		
		- -
		
		[*] -> MainOperation2 
		MainOperation2 -> MainOperation2 : DriverImages.newData  /\nNetworkImages.newData(DriverImages.newData::blurred, DriverImages.newData::car)
		
		
	
	}
	
@enduml

PlantUML version 1.2022.7(Mon Aug 22 19:01:30 CEST 2022)
(EPL source distribution)
Java Runtime: OpenJDK Runtime Environment
JVM: OpenJDK 64-Bit Server VM
Default Encoding: UTF-8
Language: en
Country: US
--></g></svg>