<?xml version="1.0" encoding="UTF-8" standalone="no"?><svg xmlns="http://www.w3.org/2000/svg" xmlns:xlink="http://www.w3.org/1999/xlink" contentStyleType="text/css" height="249px" preserveAspectRatio="none" style="width:351px;height:249px;background:#FFFFFF;" version="1.1" viewBox="0 0 351 249" width="351px" zoomAndPan="magnify"><defs/><g><rect fill="#F1F1F1" height="27.6094" style="stroke:#F1F1F1;stroke-width:1.0;" width="337.91" x="7" y="7"/><rect fill="none" height="236.6094" style="stroke:#181818;stroke-width:0.5;" width="337.91" x="7" y="7"/><line style="stroke:#181818;stroke-width:0.5;" x1="7" x2="344.91" y1="34.6094" y2="34.6094"/><text fill="#000000" font-family="sans-serif" font-size="14" lengthAdjust="spacing" textLength="105" x="123.455" y="26.5332">TrafficStatechart</text><ellipse cx="59.91" cy="71.6094" fill="#222222" rx="10" ry="10" style="stroke:none;stroke-width:1.0;"/><g id="TrafficStatechart.nocar"><rect fill="#F1F1F1" height="50" rx="12.5" ry="12.5" style="stroke:#181818;stroke-width:0.5;" width="56" x="87.91" y="46.6094"/><line style="stroke:#181818;stroke-width:0.5;" x1="87.91" x2="143.91" y1="74.2188" y2="74.2188"/><text fill="#000000" font-family="sans-serif" font-size="14" lengthAdjust="spacing" textLength="36" x="97.91" y="66.1426">nocar</text></g><g id="TrafficStatechart.car"><rect fill="#F1F1F1" height="50" rx="12.5" ry="12.5" style="stroke:#181818;stroke-width:0.5;" width="50" x="90.91" y="183.6094"/><line style="stroke:#181818;stroke-width:0.5;" x1="90.91" x2="140.91" y1="211.2188" y2="211.2188"/><text fill="#000000" font-family="sans-serif" font-size="14" lengthAdjust="spacing" textLength="20" x="105.91" y="203.1426">car</text></g><!--MD5=[058588295ad9b0dfbd83233ee1983d1b]
link *start*TrafficStatechart to nocar--><g id="link_*start*TrafficStatechart_nocar"><path d="M69.97,71.6094 C73.72,71.6094 77.48,71.6094 81.23,71.6094 " fill="none" id="*start*TrafficStatechart-to-nocar" style="stroke:#181818;stroke-width:1.0;"/><polygon fill="#181818" points="86.04,71.6094,77.04,67.6094,81.04,71.6094,77.04,75.6094,86.04,71.6094" style="stroke:#181818;stroke-width:1.0;"/></g><!--MD5=[d2d4695bee8259a6cf29b0cd27300023]
link nocar to car--><g id="link_nocar_car"><path d="M87.59,91.8494 C84.7,93.5394 81.78,95.1594 78.91,96.6094 C58.56,106.8694 43.88,95.8794 30.91,114.6094 C18,133.2394 18.94,146.3594 30.91,165.6094 C42.64,184.4894 65.64,195.1394 84.76,200.9894 " fill="none" id="nocar-to-car" style="stroke:#181818;stroke-width:1.0;"/><polygon fill="#181818" points="89.1,202.2294,81.5626,195.89,84.2962,200.8426,79.3437,203.5762,89.1,202.2294" style="stroke:#181818;stroke-width:1.0;"/><text fill="#000000" font-family="sans-serif" font-size="13" lengthAdjust="spacing" textLength="130" x="40.41" y="129.1045">CarArrives.newEvent  /</text><text fill="#000000" font-family="sans-serif" font-size="13" lengthAdjust="spacing" textLength="145" x="32.91" y="145.4561">TrafficStream.carArrives()</text><text fill="#000000" font-family="sans-serif" font-size="13" lengthAdjust="spacing" textLength="147" x="31.91" y="161.8076">CarArrivesOut.newEvent()</text></g><!--MD5=[3ba11ffa89e08f98434555280e6c418b]
link car to nocar--><g id="link_car_nocar"><path d="M141.19,198.1494 C155.32,191.4094 171.7,180.8094 179.91,165.6094 C190.67,145.6594 190.67,134.5594 179.91,114.6094 C173.34,102.4494 161.55,93.2394 149.86,86.5894 " fill="none" id="car-to-nocar" style="stroke:#181818;stroke-width:1.0;"/><polygon fill="#181818" points="145.49,84.2394,151.5449,92.0071,149.9006,86.5945,155.3132,84.9502,145.49,84.2394" style="stroke:#181818;stroke-width:1.0;"/><text fill="#000000" font-family="sans-serif" font-size="13" lengthAdjust="spacing" textLength="131" x="196.41" y="137.6045">CarLeaves.newEvent  /</text><text fill="#000000" font-family="sans-serif" font-size="13" lengthAdjust="spacing" textLength="146" x="188.91" y="153.9561">TrafficStream.carLeaves()</text></g><!--MD5=[67a7cbbe60595720e50fb4993db8a6c4]
@startuml
	<style>
		.squareStyle {
			RoundCorner 0
		}
	</style>
	state TrafficStatechart <<squareStyle>> {
		'region: $$_main_$$
		[*] -> nocar 
		nocar - -> car : CarArrives.newEvent  /\nTrafficStream.carArrives()\nCarArrivesOut.newEvent()
		car - -> nocar : CarLeaves.newEvent  /\nTrafficStream.carLeaves()
		
		
	
	}
	
@enduml

@startuml
	<style>
		.squareStyle {
			RoundCorner 0
		}
	</style>
	state TrafficStatechart <<squareStyle>> {
		[*] -> nocar 
		nocar - -> car : CarArrives.newEvent  /\nTrafficStream.carArrives()\nCarArrivesOut.newEvent()
		car - -> nocar : CarLeaves.newEvent  /\nTrafficStream.carLeaves()
		
		
	
	}
	
@enduml

PlantUML version 1.2022.7(Mon Aug 22 19:01:30 CEST 2022)
(EPL source distribution)
Java Runtime: OpenJDK Runtime Environment
JVM: OpenJDK 64-Bit Server VM
Default Encoding: UTF-8
Language: en
Country: US
--></g></svg>